<mxfile host="app.diagrams.net" agent="Mozilla/5.0 (Windows NT 10.0; Win64; x64) AppleWebKit/537.36 (KHTML, like Gecko) Chrome/138.0.0.0 Safari/537.36" version="27.1.6">
  <diagram name="Page-1" id="lCSdPAoNotVQWpnE-n8k">
    <mxGraphModel dx="2683" dy="987" grid="1" gridSize="10" guides="1" tooltips="1" connect="1" arrows="1" fold="1" page="1" pageScale="1" pageWidth="850" pageHeight="1100" math="0" shadow="0">
      <root>
        <mxCell id="0" />
        <mxCell id="1" parent="0" />
        <mxCell id="UGw-6VoF0CwUTXnPX2Lv-5" value="&lt;font style=&quot;font-size: 16px;&quot;&gt;Car&lt;/font&gt;" style="swimlane;fontStyle=0;childLayout=stackLayout;horizontal=1;startSize=26;fillColor=#dae8fc;horizontalStack=0;resizeParent=1;resizeParentMax=0;resizeLast=0;collapsible=1;marginBottom=0;whiteSpace=wrap;html=1;strokeColor=#6c8ebf;" vertex="1" parent="1">
          <mxGeometry x="160" y="504" width="220" height="182" as="geometry">
            <mxRectangle x="30" y="30" width="54" height="26" as="alternateBounds" />
          </mxGeometry>
        </mxCell>
        <mxCell id="UGw-6VoF0CwUTXnPX2Lv-6" value="&lt;font style=&quot;font-size: 14px;&quot;&gt;- id: integer&lt;span style=&quot;white-space: pre;&quot;&gt;&#x9;&lt;/span&gt;&lt;/font&gt;" style="text;strokeColor=none;fillColor=none;align=left;verticalAlign=top;spacingLeft=4;spacingRight=4;overflow=hidden;rotatable=0;points=[[0,0.5],[1,0.5]];portConstraint=eastwest;whiteSpace=wrap;html=1;" vertex="1" parent="UGw-6VoF0CwUTXnPX2Lv-5">
          <mxGeometry y="26" width="220" height="26" as="geometry" />
        </mxCell>
        <mxCell id="UGw-6VoF0CwUTXnPX2Lv-7" value="&lt;font style=&quot;font-size: 14px;&quot;&gt;- price: double&lt;/font&gt;" style="text;strokeColor=none;fillColor=none;align=left;verticalAlign=top;spacingLeft=4;spacingRight=4;overflow=hidden;rotatable=0;points=[[0,0.5],[1,0.5]];portConstraint=eastwest;whiteSpace=wrap;html=1;" vertex="1" parent="UGw-6VoF0CwUTXnPX2Lv-5">
          <mxGeometry y="52" width="220" height="26" as="geometry" />
        </mxCell>
        <mxCell id="UGw-6VoF0CwUTXnPX2Lv-10" value="&lt;font style=&quot;font-size: 14px;&quot;&gt;- year: Date&lt;/font&gt;" style="text;strokeColor=none;fillColor=none;align=left;verticalAlign=top;spacingLeft=4;spacingRight=4;overflow=hidden;rotatable=0;points=[[0,0.5],[1,0.5]];portConstraint=eastwest;whiteSpace=wrap;html=1;" vertex="1" parent="UGw-6VoF0CwUTXnPX2Lv-5">
          <mxGeometry y="78" width="220" height="26" as="geometry" />
        </mxCell>
        <mxCell id="UGw-6VoF0CwUTXnPX2Lv-11" value="&lt;font style=&quot;font-size: 14px;&quot;&gt;- brand: String&lt;/font&gt;" style="text;strokeColor=none;fillColor=none;align=left;verticalAlign=top;spacingLeft=4;spacingRight=4;overflow=hidden;rotatable=0;points=[[0,0.5],[1,0.5]];portConstraint=eastwest;whiteSpace=wrap;html=1;" vertex="1" parent="UGw-6VoF0CwUTXnPX2Lv-5">
          <mxGeometry y="104" width="220" height="26" as="geometry" />
        </mxCell>
        <mxCell id="UGw-6VoF0CwUTXnPX2Lv-12" value="&lt;font style=&quot;font-size: 14px;&quot;&gt;+ updatePrice(price: double): void&lt;/font&gt;" style="text;strokeColor=none;fillColor=none;align=left;verticalAlign=top;spacingLeft=4;spacingRight=4;overflow=hidden;rotatable=0;points=[[0,0.5],[1,0.5]];portConstraint=eastwest;whiteSpace=wrap;html=1;" vertex="1" parent="UGw-6VoF0CwUTXnPX2Lv-5">
          <mxGeometry y="130" width="220" height="26" as="geometry" />
        </mxCell>
        <mxCell id="UGw-6VoF0CwUTXnPX2Lv-13" value="&lt;font style=&quot;font-size: 14px;&quot;&gt;+ getBrand(): String&lt;/font&gt;" style="text;strokeColor=none;fillColor=none;align=left;verticalAlign=top;spacingLeft=4;spacingRight=4;overflow=hidden;rotatable=0;points=[[0,0.5],[1,0.5]];portConstraint=eastwest;whiteSpace=wrap;html=1;" vertex="1" parent="UGw-6VoF0CwUTXnPX2Lv-5">
          <mxGeometry y="156" width="220" height="26" as="geometry" />
        </mxCell>
        <mxCell id="UGw-6VoF0CwUTXnPX2Lv-14" value="" style="endArrow=none;html=1;rounded=0;exitX=0.002;exitY=-0.02;exitDx=0;exitDy=0;exitPerimeter=0;entryX=1;entryY=0.022;entryDx=0;entryDy=0;entryPerimeter=0;fillColor=#dae8fc;strokeColor=#6c8ebf;" edge="1" parent="UGw-6VoF0CwUTXnPX2Lv-5" source="UGw-6VoF0CwUTXnPX2Lv-12" target="UGw-6VoF0CwUTXnPX2Lv-12">
          <mxGeometry width="50" height="50" relative="1" as="geometry">
            <mxPoint x="60" y="250" as="sourcePoint" />
            <mxPoint x="110" y="200" as="targetPoint" />
          </mxGeometry>
        </mxCell>
        <mxCell id="UGw-6VoF0CwUTXnPX2Lv-17" value="" style="shape=flexArrow;endArrow=classic;html=1;rounded=0;endWidth=10.277777777777777;endSize=4.347222222222222;width=9.444444444444445;" edge="1" parent="1">
          <mxGeometry width="50" height="50" relative="1" as="geometry">
            <mxPoint x="420" y="587.86" as="sourcePoint" />
            <mxPoint x="380" y="587.86" as="targetPoint" />
          </mxGeometry>
        </mxCell>
        <mxCell id="UGw-6VoF0CwUTXnPX2Lv-19" value="&lt;font style=&quot;font-size: 16px;&quot;&gt;Attributes&lt;/font&gt;" style="text;html=1;align=center;verticalAlign=middle;whiteSpace=wrap;rounded=0;" vertex="1" parent="1">
          <mxGeometry x="430" y="573" width="70" height="30" as="geometry" />
        </mxCell>
        <mxCell id="UGw-6VoF0CwUTXnPX2Lv-15" value="" style="shape=flexArrow;endArrow=classic;html=1;rounded=0;endWidth=10.277777777777777;endSize=4.347222222222222;width=9.444444444444445;" edge="1" parent="1">
          <mxGeometry width="50" height="50" relative="1" as="geometry">
            <mxPoint x="420" y="514.8" as="sourcePoint" />
            <mxPoint x="380" y="514.8" as="targetPoint" />
          </mxGeometry>
        </mxCell>
        <mxCell id="UGw-6VoF0CwUTXnPX2Lv-16" value="&lt;font style=&quot;font-size: 16px;&quot;&gt;Name&lt;/font&gt;" style="text;html=1;align=center;verticalAlign=middle;whiteSpace=wrap;rounded=0;" vertex="1" parent="1">
          <mxGeometry x="420" y="500" width="60" height="30" as="geometry" />
        </mxCell>
        <mxCell id="UGw-6VoF0CwUTXnPX2Lv-18" value="" style="shape=flexArrow;endArrow=classic;html=1;rounded=0;endWidth=10.277777777777777;endSize=4.347222222222222;width=9.444444444444445;" edge="1" parent="1">
          <mxGeometry width="50" height="50" relative="1" as="geometry">
            <mxPoint x="420" y="664" as="sourcePoint" />
            <mxPoint x="380" y="664" as="targetPoint" />
          </mxGeometry>
        </mxCell>
        <mxCell id="UGw-6VoF0CwUTXnPX2Lv-20" value="&lt;font style=&quot;font-size: 16px;&quot;&gt;Methods&lt;/font&gt;" style="text;html=1;align=center;verticalAlign=middle;whiteSpace=wrap;rounded=0;" vertex="1" parent="1">
          <mxGeometry x="430" y="654" width="60" height="20" as="geometry" />
        </mxCell>
        <mxCell id="UGw-6VoF0CwUTXnPX2Lv-26" value="visibility" style="rounded=0;whiteSpace=wrap;html=1;fillColor=#fff2cc;strokeColor=#d6b656;" vertex="1" parent="1">
          <mxGeometry x="520" y="504" width="60" height="36" as="geometry" />
        </mxCell>
        <mxCell id="UGw-6VoF0CwUTXnPX2Lv-27" value="name" style="rounded=0;whiteSpace=wrap;html=1;fillColor=#fff2cc;strokeColor=#d6b656;" vertex="1" parent="1">
          <mxGeometry x="580" y="504" width="60" height="36" as="geometry" />
        </mxCell>
        <mxCell id="UGw-6VoF0CwUTXnPX2Lv-28" value="type" style="rounded=0;whiteSpace=wrap;html=1;fillColor=#fff2cc;strokeColor=#d6b656;" vertex="1" parent="1">
          <mxGeometry x="640" y="504" width="60" height="36" as="geometry" />
        </mxCell>
        <mxCell id="UGw-6VoF0CwUTXnPX2Lv-29" value="multiplicity" style="rounded=0;whiteSpace=wrap;html=1;fillColor=#fff2cc;strokeColor=#d6b656;" vertex="1" parent="1">
          <mxGeometry x="700" y="504" width="70" height="36" as="geometry" />
        </mxCell>
        <mxCell id="UGw-6VoF0CwUTXnPX2Lv-30" value="default value" style="rounded=0;whiteSpace=wrap;html=1;fillColor=#fff2cc;strokeColor=#d6b656;" vertex="1" parent="1">
          <mxGeometry x="770" y="504" width="80" height="36" as="geometry" />
        </mxCell>
        <mxCell id="UGw-6VoF0CwUTXnPX2Lv-31" value="visibility" style="rounded=0;whiteSpace=wrap;html=1;fillColor=#d5e8d4;strokeColor=#82b366;" vertex="1" parent="1">
          <mxGeometry x="870" y="504" width="60" height="36" as="geometry" />
        </mxCell>
        <mxCell id="UGw-6VoF0CwUTXnPX2Lv-32" value="name" style="rounded=0;whiteSpace=wrap;html=1;fillColor=#d5e8d4;strokeColor=#82b366;" vertex="1" parent="1">
          <mxGeometry x="930" y="504" width="60" height="36" as="geometry" />
        </mxCell>
        <mxCell id="UGw-6VoF0CwUTXnPX2Lv-33" value="parameter list" style="rounded=0;whiteSpace=wrap;html=1;fillColor=#d5e8d4;strokeColor=#82b366;" vertex="1" parent="1">
          <mxGeometry x="990" y="504" width="90" height="36" as="geometry" />
        </mxCell>
        <mxCell id="UGw-6VoF0CwUTXnPX2Lv-35" value="return type" style="rounded=0;whiteSpace=wrap;html=1;fillColor=#d5e8d4;strokeColor=#82b366;" vertex="1" parent="1">
          <mxGeometry x="1080" y="504" width="80" height="36" as="geometry" />
        </mxCell>
        <mxCell id="UGw-6VoF0CwUTXnPX2Lv-23" value="&lt;font style=&quot;font-size: 15px;&quot;&gt;&lt;b&gt;Class&lt;/b&gt;&lt;/font&gt;" style="text;html=1;align=left;verticalAlign=middle;whiteSpace=wrap;rounded=0;" vertex="1" parent="1">
          <mxGeometry x="160" y="470" width="70" height="30" as="geometry" />
        </mxCell>
        <mxCell id="UGw-6VoF0CwUTXnPX2Lv-24" value="&lt;font style=&quot;font-size: 15px;&quot;&gt;&lt;b&gt;Attributes&lt;/b&gt;&lt;/font&gt;" style="text;html=1;align=left;verticalAlign=middle;whiteSpace=wrap;rounded=0;" vertex="1" parent="1">
          <mxGeometry x="520" y="470" width="70" height="30" as="geometry" />
        </mxCell>
        <mxCell id="UGw-6VoF0CwUTXnPX2Lv-25" value="&lt;font style=&quot;font-size: 15px;&quot;&gt;&lt;b&gt;Methods&lt;/b&gt;&lt;/font&gt;" style="text;html=1;align=left;verticalAlign=middle;whiteSpace=wrap;rounded=0;" vertex="1" parent="1">
          <mxGeometry x="870" y="470" width="70" height="30" as="geometry" />
        </mxCell>
        <mxCell id="UGw-6VoF0CwUTXnPX2Lv-36" value="" style="swimlane;startSize=0;" vertex="1" parent="1">
          <mxGeometry x="150" y="470" width="360" height="300" as="geometry" />
        </mxCell>
        <mxCell id="UGw-6VoF0CwUTXnPX2Lv-38" value="" style="swimlane;startSize=0;" vertex="1" parent="1">
          <mxGeometry x="130" y="110" width="310" height="240" as="geometry" />
        </mxCell>
        <mxCell id="UGw-6VoF0CwUTXnPX2Lv-39" value="" style="swimlane;startSize=0;" vertex="1" parent="1">
          <mxGeometry x="510" y="470" width="350" height="300" as="geometry" />
        </mxCell>
        <mxCell id="UGw-6VoF0CwUTXnPX2Lv-65" value="&lt;font style=&quot;font-size: 15px;&quot;&gt;&amp;nbsp;- description: String = &quot;Default text for description&quot;&lt;/font&gt;" style="text;html=1;align=left;verticalAlign=middle;whiteSpace=wrap;rounded=0;" vertex="1" parent="UGw-6VoF0CwUTXnPX2Lv-39">
          <mxGeometry x="10" y="150" width="340" height="30" as="geometry" />
        </mxCell>
        <mxCell id="UGw-6VoF0CwUTXnPX2Lv-66" value="&lt;font style=&quot;font-size: 15px;&quot;&gt;&amp;nbsp;# customerContacts: Contact [0..*]&lt;/font&gt;" style="text;html=1;align=left;verticalAlign=middle;whiteSpace=wrap;rounded=0;" vertex="1" parent="UGw-6VoF0CwUTXnPX2Lv-39">
          <mxGeometry x="10" y="110" width="250" height="30" as="geometry" />
        </mxCell>
        <mxCell id="UGw-6VoF0CwUTXnPX2Lv-68" value="" style="endArrow=classic;html=1;rounded=0;dashed=1;dashPattern=8 8;exitX=0.5;exitY=1;exitDx=0;exitDy=0;" edge="1" parent="UGw-6VoF0CwUTXnPX2Lv-39">
          <mxGeometry width="50" height="50" relative="1" as="geometry">
            <mxPoint x="100" y="70" as="sourcePoint" />
            <mxPoint x="100" y="110" as="targetPoint" />
          </mxGeometry>
        </mxCell>
        <mxCell id="UGw-6VoF0CwUTXnPX2Lv-69" value="" style="endArrow=classic;html=1;rounded=0;dashed=1;dashPattern=8 8;exitX=0.5;exitY=1;exitDx=0;exitDy=0;" edge="1" parent="UGw-6VoF0CwUTXnPX2Lv-39">
          <mxGeometry width="50" height="50" relative="1" as="geometry">
            <mxPoint x="160" y="70" as="sourcePoint" />
            <mxPoint x="160" y="110" as="targetPoint" />
          </mxGeometry>
        </mxCell>
        <mxCell id="UGw-6VoF0CwUTXnPX2Lv-70" value="" style="endArrow=classic;html=1;rounded=0;dashed=1;dashPattern=8 8;exitX=0.5;exitY=1;exitDx=0;exitDy=0;" edge="1" parent="UGw-6VoF0CwUTXnPX2Lv-39">
          <mxGeometry width="50" height="50" relative="1" as="geometry">
            <mxPoint x="220" y="70" as="sourcePoint" />
            <mxPoint x="220" y="110" as="targetPoint" />
          </mxGeometry>
        </mxCell>
        <mxCell id="UGw-6VoF0CwUTXnPX2Lv-71" value="" style="endArrow=classic;html=1;rounded=0;dashed=1;dashPattern=8 8;exitX=0.5;exitY=1;exitDx=0;exitDy=0;entryX=0.856;entryY=0.064;entryDx=0;entryDy=0;entryPerimeter=0;" edge="1" parent="UGw-6VoF0CwUTXnPX2Lv-39" target="UGw-6VoF0CwUTXnPX2Lv-65">
          <mxGeometry width="50" height="50" relative="1" as="geometry">
            <mxPoint x="300" y="70" as="sourcePoint" />
            <mxPoint x="300" y="110" as="targetPoint" />
          </mxGeometry>
        </mxCell>
        <mxCell id="UGw-6VoF0CwUTXnPX2Lv-40" value="" style="swimlane;startSize=0;" vertex="1" parent="1">
          <mxGeometry x="860" y="470" width="310" height="300" as="geometry" />
        </mxCell>
        <mxCell id="UGw-6VoF0CwUTXnPX2Lv-72" value="&lt;font style=&quot;font-size: 15px;&quot;&gt;&amp;nbsp;+ calculatePrice(input: String): double&lt;/font&gt;" style="text;html=1;align=left;verticalAlign=middle;whiteSpace=wrap;rounded=0;" vertex="1" parent="UGw-6VoF0CwUTXnPX2Lv-40">
          <mxGeometry x="10" y="110" width="280" height="30" as="geometry" />
        </mxCell>
        <mxCell id="UGw-6VoF0CwUTXnPX2Lv-73" value="" style="endArrow=classic;html=1;rounded=0;dashed=1;dashPattern=8 8;exitX=0.5;exitY=1;exitDx=0;exitDy=0;" edge="1" parent="UGw-6VoF0CwUTXnPX2Lv-40">
          <mxGeometry width="50" height="50" relative="1" as="geometry">
            <mxPoint x="40" y="70" as="sourcePoint" />
            <mxPoint x="40" y="110" as="targetPoint" />
          </mxGeometry>
        </mxCell>
        <mxCell id="UGw-6VoF0CwUTXnPX2Lv-74" value="" style="endArrow=classic;html=1;rounded=0;dashed=1;dashPattern=8 8;exitX=0.5;exitY=1;exitDx=0;exitDy=0;" edge="1" parent="UGw-6VoF0CwUTXnPX2Lv-40">
          <mxGeometry width="50" height="50" relative="1" as="geometry">
            <mxPoint x="100" y="70" as="sourcePoint" />
            <mxPoint x="100" y="110" as="targetPoint" />
          </mxGeometry>
        </mxCell>
        <mxCell id="UGw-6VoF0CwUTXnPX2Lv-75" value="" style="endArrow=classic;html=1;rounded=0;dashed=1;dashPattern=8 8;exitX=0.5;exitY=1;exitDx=0;exitDy=0;" edge="1" parent="UGw-6VoF0CwUTXnPX2Lv-40">
          <mxGeometry width="50" height="50" relative="1" as="geometry">
            <mxPoint x="170" y="70" as="sourcePoint" />
            <mxPoint x="170" y="110" as="targetPoint" />
          </mxGeometry>
        </mxCell>
        <mxCell id="UGw-6VoF0CwUTXnPX2Lv-76" value="" style="endArrow=classic;html=1;rounded=0;dashed=1;dashPattern=8 8;exitX=0.5;exitY=1;exitDx=0;exitDy=0;" edge="1" parent="UGw-6VoF0CwUTXnPX2Lv-40">
          <mxGeometry width="50" height="50" relative="1" as="geometry">
            <mxPoint x="260" y="70" as="sourcePoint" />
            <mxPoint x="260" y="110" as="targetPoint" />
          </mxGeometry>
        </mxCell>
        <mxCell id="UGw-6VoF0CwUTXnPX2Lv-78" value="&lt;font style=&quot;font-size: 15px;&quot;&gt;&amp;nbsp;~ serialize(obj: Object): String&lt;/font&gt;" style="text;html=1;align=left;verticalAlign=middle;whiteSpace=wrap;rounded=0;" vertex="1" parent="UGw-6VoF0CwUTXnPX2Lv-40">
          <mxGeometry x="10" y="150" width="280" height="30" as="geometry" />
        </mxCell>
        <mxCell id="UGw-6VoF0CwUTXnPX2Lv-41" value="" style="swimlane;startSize=0;" vertex="1" parent="1">
          <mxGeometry x="150" y="770" width="360" height="240" as="geometry" />
        </mxCell>
        <mxCell id="UGw-6VoF0CwUTXnPX2Lv-45" value="&lt;font style=&quot;font-size: 15px;&quot;&gt;&lt;b&gt;Visibility&lt;/b&gt;&lt;/font&gt;" style="text;html=1;align=left;verticalAlign=middle;whiteSpace=wrap;rounded=0;" vertex="1" parent="UGw-6VoF0CwUTXnPX2Lv-41">
          <mxGeometry x="10" width="70" height="30" as="geometry" />
        </mxCell>
        <mxCell id="UGw-6VoF0CwUTXnPX2Lv-160" value="&lt;b&gt;&lt;font style=&quot;font-size: 22px;&quot;&gt;+&amp;nbsp;&amp;nbsp;&lt;/font&gt;&lt;/b&gt;&lt;span style=&quot;font-size: 18px;&quot;&gt;public&lt;br&gt;&lt;br&gt;&lt;/span&gt;&lt;div&gt;&lt;b style=&quot;background-color: transparent; color: light-dark(rgb(0, 0, 0), rgb(255, 255, 255));&quot;&gt;&lt;font style=&quot;font-size: 22px;&quot;&gt;-&amp;nbsp; &amp;nbsp;&lt;/font&gt;&lt;/b&gt;&lt;span style=&quot;background-color: transparent; color: light-dark(rgb(0, 0, 0), rgb(255, 255, 255)); font-size: 18px;&quot;&gt;private&lt;br&gt;&lt;br&gt;&lt;/span&gt;&lt;/div&gt;&lt;div&gt;&lt;b style=&quot;background-color: transparent; color: light-dark(rgb(0, 0, 0), rgb(255, 255, 255));&quot;&gt;&lt;font style=&quot;font-size: 22px;&quot;&gt;#&amp;nbsp;&amp;nbsp;&lt;/font&gt;&lt;/b&gt;&lt;span style=&quot;font-size: 18px; background-color: transparent; color: light-dark(rgb(0, 0, 0), rgb(255, 255, 255));&quot;&gt;protected&lt;br&gt;&lt;br&gt;&lt;/span&gt;&lt;/div&gt;&lt;div&gt;&lt;b style=&quot;background-color: transparent; color: light-dark(rgb(0, 0, 0), rgb(255, 255, 255)); font-size: 22px;&quot;&gt;~&amp;nbsp;&amp;nbsp;&lt;/b&gt;&lt;span style=&quot;font-size: 18px; background-color: transparent; color: light-dark(rgb(0, 0, 0), rgb(255, 255, 255));&quot;&gt;package-private&amp;nbsp;&amp;nbsp;&lt;/span&gt;&lt;/div&gt;&lt;div&gt;&lt;span style=&quot;font-size: 18px; background-color: transparent; color: light-dark(rgb(0, 0, 0), rgb(255, 255, 255));&quot;&gt;&amp;nbsp;&lt;/span&gt;&lt;/div&gt;" style="text;html=1;align=left;verticalAlign=middle;whiteSpace=wrap;rounded=0;" vertex="1" parent="UGw-6VoF0CwUTXnPX2Lv-41">
          <mxGeometry x="20" y="40" width="170" height="190" as="geometry" />
        </mxCell>
        <mxCell id="UGw-6VoF0CwUTXnPX2Lv-42" value="" style="swimlane;startSize=0;" vertex="1" parent="1">
          <mxGeometry x="860" y="770" width="310" height="240" as="geometry" />
        </mxCell>
        <mxCell id="UGw-6VoF0CwUTXnPX2Lv-46" value="&lt;font style=&quot;font-size: 15px;&quot;&gt;&lt;b&gt;Multiplicity&lt;/b&gt;&lt;/font&gt;" style="text;html=1;align=left;verticalAlign=middle;whiteSpace=wrap;rounded=0;" vertex="1" parent="UGw-6VoF0CwUTXnPX2Lv-42">
          <mxGeometry x="10" width="70" height="30" as="geometry" />
        </mxCell>
        <mxCell id="UGw-6VoF0CwUTXnPX2Lv-157" value="&lt;ul&gt;&lt;li&gt;&lt;font style=&quot;&quot;&gt;&lt;font style=&quot;font-size: 15px;&quot;&gt;&lt;b&gt;0..1&lt;/b&gt;&amp;nbsp; &amp;nbsp;- zero or one&lt;br&gt;&lt;br&gt;&lt;/font&gt;&lt;/font&gt;&lt;/li&gt;&lt;li&gt;&lt;font style=&quot;&quot;&gt;&lt;font style=&quot;font-size: 15px;&quot;&gt;&lt;b&gt;1&lt;/b&gt;&amp;nbsp; &amp;nbsp; &amp;nbsp; &amp;nbsp;- exactly one&lt;br&gt;&lt;br&gt;&lt;/font&gt;&lt;/font&gt;&lt;/li&gt;&lt;li&gt;&lt;font style=&quot;&quot;&gt;&lt;font style=&quot;font-size: 15px;&quot;&gt;&lt;b&gt;0..*&lt;/b&gt;&amp;nbsp; &amp;nbsp;- many, optional&lt;br&gt;&lt;br&gt;&lt;/font&gt;&lt;/font&gt;&lt;/li&gt;&lt;li&gt;&lt;font style=&quot;font-size: 15px;&quot;&gt;&lt;b&gt;1..*&lt;/b&gt;&amp;nbsp; &amp;nbsp;- many, mandatory&lt;br&gt;&lt;br&gt;&lt;/font&gt;&lt;/li&gt;&lt;li&gt;&lt;font style=&quot;font-size: 15px;&quot;&gt;&lt;b&gt;n&lt;/b&gt;&amp;nbsp; &amp;nbsp; &amp;nbsp; - exactly &lt;i&gt;n &lt;/i&gt;instances&lt;br&gt;&lt;br&gt;&lt;/font&gt;&lt;/li&gt;&lt;li&gt;&lt;font style=&quot;font-size: 15px;&quot;&gt;&lt;b&gt;n..m&lt;/b&gt; - from &lt;i style=&quot;&quot;&gt;n&lt;/i&gt; to &lt;i style=&quot;&quot;&gt;m&lt;/i&gt; instances&lt;/font&gt;&lt;/li&gt;&lt;/ul&gt;" style="text;html=1;align=left;verticalAlign=middle;whiteSpace=wrap;rounded=0;" vertex="1" parent="UGw-6VoF0CwUTXnPX2Lv-42">
          <mxGeometry x="-10" y="30" width="250" height="210" as="geometry" />
        </mxCell>
        <mxCell id="UGw-6VoF0CwUTXnPX2Lv-44" value="" style="swimlane;startSize=0;" vertex="1" parent="1">
          <mxGeometry x="150" y="1010" width="360" height="240" as="geometry" />
        </mxCell>
        <mxCell id="UGw-6VoF0CwUTXnPX2Lv-48" value="&lt;font style=&quot;font-size: 15px;&quot;&gt;&lt;b&gt;Interface&lt;/b&gt;&lt;/font&gt;" style="text;html=1;align=left;verticalAlign=middle;whiteSpace=wrap;rounded=0;" vertex="1" parent="UGw-6VoF0CwUTXnPX2Lv-44">
          <mxGeometry x="10" width="70" height="30" as="geometry" />
        </mxCell>
        <mxCell id="UGw-6VoF0CwUTXnPX2Lv-81" value="&lt;font style=&quot;font-size: 16px;&quot;&gt;&amp;lt;&amp;lt;interface&amp;gt;&amp;gt;&lt;br&gt;Validator&lt;/font&gt;" style="swimlane;fontStyle=0;childLayout=stackLayout;horizontal=1;startSize=40;fillColor=#d5e8d4;horizontalStack=0;resizeParent=1;resizeParentMax=0;resizeLast=0;collapsible=1;marginBottom=0;whiteSpace=wrap;html=1;strokeColor=#82b366;" vertex="1" parent="UGw-6VoF0CwUTXnPX2Lv-44">
          <mxGeometry x="40" y="30" width="275" height="92" as="geometry">
            <mxRectangle x="30" y="30" width="54" height="26" as="alternateBounds" />
          </mxGeometry>
        </mxCell>
        <mxCell id="UGw-6VoF0CwUTXnPX2Lv-86" value="+ isApplicable(contract: Contract): boolean" style="text;strokeColor=none;fillColor=none;align=left;verticalAlign=top;spacingLeft=4;spacingRight=4;overflow=hidden;rotatable=0;points=[[0,0.5],[1,0.5]];portConstraint=eastwest;whiteSpace=wrap;html=1;" vertex="1" parent="UGw-6VoF0CwUTXnPX2Lv-81">
          <mxGeometry y="40" width="275" height="26" as="geometry" />
        </mxCell>
        <mxCell id="UGw-6VoF0CwUTXnPX2Lv-87" value="+ validate(contract Contract): void" style="text;strokeColor=none;fillColor=none;align=left;verticalAlign=top;spacingLeft=4;spacingRight=4;overflow=hidden;rotatable=0;points=[[0,0.5],[1,0.5]];portConstraint=eastwest;whiteSpace=wrap;html=1;" vertex="1" parent="UGw-6VoF0CwUTXnPX2Lv-81">
          <mxGeometry y="66" width="275" height="26" as="geometry" />
        </mxCell>
        <mxCell id="UGw-6VoF0CwUTXnPX2Lv-49" value="" style="swimlane;startSize=0;" vertex="1" parent="1">
          <mxGeometry x="510" y="1010" width="350" height="240" as="geometry" />
        </mxCell>
        <mxCell id="UGw-6VoF0CwUTXnPX2Lv-50" value="&lt;font style=&quot;font-size: 15px;&quot;&gt;&lt;b&gt;Enumeration&lt;/b&gt;&lt;/font&gt;" style="text;html=1;align=left;verticalAlign=middle;whiteSpace=wrap;rounded=0;" vertex="1" parent="UGw-6VoF0CwUTXnPX2Lv-49">
          <mxGeometry x="10" width="70" height="30" as="geometry" />
        </mxCell>
        <mxCell id="UGw-6VoF0CwUTXnPX2Lv-89" value="&lt;font style=&quot;font-size: 16px;&quot;&gt;&amp;lt;&amp;lt;enumeration&amp;gt;&lt;br&gt;ContractStatus&lt;/font&gt;" style="swimlane;fontStyle=0;childLayout=stackLayout;horizontal=1;startSize=40;fillColor=#ffe6cc;horizontalStack=0;resizeParent=1;resizeParentMax=0;resizeLast=0;collapsible=1;marginBottom=0;whiteSpace=wrap;html=1;strokeColor=#d79b00;" vertex="1" parent="UGw-6VoF0CwUTXnPX2Lv-49">
          <mxGeometry x="43.75" y="30" width="252.5" height="118" as="geometry">
            <mxRectangle x="30" y="30" width="54" height="26" as="alternateBounds" />
          </mxGeometry>
        </mxCell>
        <mxCell id="UGw-6VoF0CwUTXnPX2Lv-90" value="OPEN" style="text;strokeColor=none;fillColor=none;align=left;verticalAlign=top;spacingLeft=4;spacingRight=4;overflow=hidden;rotatable=0;points=[[0,0.5],[1,0.5]];portConstraint=eastwest;whiteSpace=wrap;html=1;" vertex="1" parent="UGw-6VoF0CwUTXnPX2Lv-89">
          <mxGeometry y="40" width="252.5" height="26" as="geometry" />
        </mxCell>
        <mxCell id="UGw-6VoF0CwUTXnPX2Lv-91" value="DELETED" style="text;strokeColor=none;fillColor=none;align=left;verticalAlign=top;spacingLeft=4;spacingRight=4;overflow=hidden;rotatable=0;points=[[0,0.5],[1,0.5]];portConstraint=eastwest;whiteSpace=wrap;html=1;" vertex="1" parent="UGw-6VoF0CwUTXnPX2Lv-89">
          <mxGeometry y="66" width="252.5" height="26" as="geometry" />
        </mxCell>
        <mxCell id="UGw-6VoF0CwUTXnPX2Lv-94" value="DRAFT" style="text;strokeColor=none;fillColor=none;align=left;verticalAlign=top;spacingLeft=4;spacingRight=4;overflow=hidden;rotatable=0;points=[[0,0.5],[1,0.5]];portConstraint=eastwest;whiteSpace=wrap;html=1;" vertex="1" parent="UGw-6VoF0CwUTXnPX2Lv-89">
          <mxGeometry y="92" width="252.5" height="26" as="geometry" />
        </mxCell>
        <mxCell id="UGw-6VoF0CwUTXnPX2Lv-53" value="" style="swimlane;startSize=0;" vertex="1" parent="1">
          <mxGeometry x="150" y="1310" width="360" height="240" as="geometry" />
        </mxCell>
        <mxCell id="UGw-6VoF0CwUTXnPX2Lv-54" value="&lt;font style=&quot;font-size: 15px;&quot;&gt;&lt;b&gt;Association&lt;/b&gt;&lt;/font&gt;" style="text;html=1;align=left;verticalAlign=middle;whiteSpace=wrap;rounded=0;" vertex="1" parent="UGw-6VoF0CwUTXnPX2Lv-53">
          <mxGeometry x="10" width="70" height="30" as="geometry" />
        </mxCell>
        <mxCell id="UGw-6VoF0CwUTXnPX2Lv-130" style="edgeStyle=orthogonalEdgeStyle;rounded=0;orthogonalLoop=1;jettySize=auto;html=1;entryX=0.5;entryY=0;entryDx=0;entryDy=0;endArrow=none;endFill=0;startFill=0;" edge="1" parent="UGw-6VoF0CwUTXnPX2Lv-53" source="UGw-6VoF0CwUTXnPX2Lv-131" target="UGw-6VoF0CwUTXnPX2Lv-132">
          <mxGeometry relative="1" as="geometry" />
        </mxCell>
        <mxCell id="UGw-6VoF0CwUTXnPX2Lv-131" value="&lt;font style=&quot;font-size: 16px;&quot;&gt;Customer&lt;/font&gt;" style="swimlane;fontStyle=0;childLayout=stackLayout;horizontal=1;startSize=26;fillColor=#d5e8d4;horizontalStack=0;resizeParent=1;resizeParentMax=0;resizeLast=0;collapsible=1;marginBottom=0;whiteSpace=wrap;html=1;strokeColor=#82b366;" vertex="1" parent="UGw-6VoF0CwUTXnPX2Lv-53">
          <mxGeometry x="90" y="40" width="180" height="50" as="geometry" />
        </mxCell>
        <mxCell id="UGw-6VoF0CwUTXnPX2Lv-132" value="&lt;font style=&quot;font-size: 16px;&quot;&gt;Order&lt;/font&gt;" style="swimlane;fontStyle=0;childLayout=stackLayout;horizontal=1;startSize=26;fillColor=#fff2cc;horizontalStack=0;resizeParent=1;resizeParentMax=0;resizeLast=0;collapsible=1;marginBottom=0;whiteSpace=wrap;html=1;strokeColor=#d6b656;" vertex="1" parent="UGw-6VoF0CwUTXnPX2Lv-53">
          <mxGeometry x="90" y="140" width="180" height="50" as="geometry" />
        </mxCell>
        <mxCell id="UGw-6VoF0CwUTXnPX2Lv-55" value="" style="swimlane;startSize=0;" vertex="1" parent="1">
          <mxGeometry x="530" y="1310" width="360" height="240" as="geometry" />
        </mxCell>
        <mxCell id="UGw-6VoF0CwUTXnPX2Lv-56" value="&lt;font style=&quot;font-size: 15px;&quot;&gt;&lt;b&gt;Aggregation&lt;/b&gt;&lt;/font&gt;" style="text;html=1;align=left;verticalAlign=middle;whiteSpace=wrap;rounded=0;" vertex="1" parent="UGw-6VoF0CwUTXnPX2Lv-55">
          <mxGeometry x="10" width="70" height="30" as="geometry" />
        </mxCell>
        <mxCell id="UGw-6VoF0CwUTXnPX2Lv-133" style="edgeStyle=orthogonalEdgeStyle;rounded=0;orthogonalLoop=1;jettySize=auto;html=1;entryX=0.5;entryY=0;entryDx=0;entryDy=0;endArrow=diamond;endFill=0;" edge="1" parent="UGw-6VoF0CwUTXnPX2Lv-55" source="UGw-6VoF0CwUTXnPX2Lv-134" target="UGw-6VoF0CwUTXnPX2Lv-135">
          <mxGeometry relative="1" as="geometry" />
        </mxCell>
        <mxCell id="UGw-6VoF0CwUTXnPX2Lv-134" value="&lt;font style=&quot;font-size: 16px;&quot;&gt;Department&lt;/font&gt;" style="swimlane;fontStyle=0;childLayout=stackLayout;horizontal=1;startSize=26;fillColor=#d5e8d4;horizontalStack=0;resizeParent=1;resizeParentMax=0;resizeLast=0;collapsible=1;marginBottom=0;whiteSpace=wrap;html=1;strokeColor=#82b366;" vertex="1" parent="UGw-6VoF0CwUTXnPX2Lv-55">
          <mxGeometry x="100" y="40" width="180" height="50" as="geometry" />
        </mxCell>
        <mxCell id="UGw-6VoF0CwUTXnPX2Lv-135" value="&lt;font style=&quot;font-size: 16px;&quot;&gt;Professor&lt;/font&gt;" style="swimlane;fontStyle=0;childLayout=stackLayout;horizontal=1;startSize=26;fillColor=#fff2cc;horizontalStack=0;resizeParent=1;resizeParentMax=0;resizeLast=0;collapsible=1;marginBottom=0;whiteSpace=wrap;html=1;strokeColor=#d6b656;" vertex="1" parent="UGw-6VoF0CwUTXnPX2Lv-55">
          <mxGeometry x="100" y="140" width="180" height="50" as="geometry" />
        </mxCell>
        <mxCell id="UGw-6VoF0CwUTXnPX2Lv-57" value="" style="swimlane;startSize=0;" vertex="1" parent="1">
          <mxGeometry x="910" y="1310" width="360" height="240" as="geometry" />
        </mxCell>
        <mxCell id="UGw-6VoF0CwUTXnPX2Lv-58" value="&lt;font style=&quot;font-size: 15px;&quot;&gt;&lt;b&gt;Composition&lt;/b&gt;&lt;/font&gt;" style="text;html=1;align=left;verticalAlign=middle;whiteSpace=wrap;rounded=0;" vertex="1" parent="UGw-6VoF0CwUTXnPX2Lv-57">
          <mxGeometry x="10" width="70" height="30" as="geometry" />
        </mxCell>
        <mxCell id="UGw-6VoF0CwUTXnPX2Lv-136" style="edgeStyle=orthogonalEdgeStyle;rounded=0;orthogonalLoop=1;jettySize=auto;html=1;entryX=0.5;entryY=0;entryDx=0;entryDy=0;endArrow=diamond;endFill=1;" edge="1" parent="UGw-6VoF0CwUTXnPX2Lv-57" source="UGw-6VoF0CwUTXnPX2Lv-137" target="UGw-6VoF0CwUTXnPX2Lv-138">
          <mxGeometry relative="1" as="geometry" />
        </mxCell>
        <mxCell id="UGw-6VoF0CwUTXnPX2Lv-137" value="&lt;font style=&quot;font-size: 16px;&quot;&gt;House&lt;/font&gt;" style="swimlane;fontStyle=0;childLayout=stackLayout;horizontal=1;startSize=26;fillColor=#d5e8d4;horizontalStack=0;resizeParent=1;resizeParentMax=0;resizeLast=0;collapsible=1;marginBottom=0;whiteSpace=wrap;html=1;strokeColor=#82b366;" vertex="1" parent="UGw-6VoF0CwUTXnPX2Lv-57">
          <mxGeometry x="100" y="40" width="180" height="50" as="geometry" />
        </mxCell>
        <mxCell id="UGw-6VoF0CwUTXnPX2Lv-138" value="&lt;font style=&quot;font-size: 16px;&quot;&gt;Room&lt;/font&gt;" style="swimlane;fontStyle=0;childLayout=stackLayout;horizontal=1;startSize=26;fillColor=#fff2cc;horizontalStack=0;resizeParent=1;resizeParentMax=0;resizeLast=0;collapsible=1;marginBottom=0;whiteSpace=wrap;html=1;strokeColor=#d6b656;" vertex="1" parent="UGw-6VoF0CwUTXnPX2Lv-57">
          <mxGeometry x="100" y="140" width="180" height="50" as="geometry" />
        </mxCell>
        <mxCell id="UGw-6VoF0CwUTXnPX2Lv-59" value="" style="swimlane;startSize=0;" vertex="1" parent="1">
          <mxGeometry x="150" y="1580" width="360" height="240" as="geometry" />
        </mxCell>
        <mxCell id="UGw-6VoF0CwUTXnPX2Lv-60" value="&lt;font style=&quot;font-size: 15px;&quot;&gt;&lt;b&gt;Inheritance&lt;/b&gt;&lt;/font&gt;" style="text;html=1;align=left;verticalAlign=middle;whiteSpace=wrap;rounded=0;" vertex="1" parent="UGw-6VoF0CwUTXnPX2Lv-59">
          <mxGeometry x="10" width="70" height="30" as="geometry" />
        </mxCell>
        <mxCell id="UGw-6VoF0CwUTXnPX2Lv-140" value="&lt;font style=&quot;font-size: 16px;&quot;&gt;Animal&lt;/font&gt;" style="swimlane;fontStyle=0;childLayout=stackLayout;horizontal=1;startSize=26;fillColor=#d5e8d4;horizontalStack=0;resizeParent=1;resizeParentMax=0;resizeLast=0;collapsible=1;marginBottom=0;whiteSpace=wrap;html=1;strokeColor=#82b366;" vertex="1" parent="UGw-6VoF0CwUTXnPX2Lv-59">
          <mxGeometry x="105" y="30" width="140" height="50" as="geometry" />
        </mxCell>
        <mxCell id="UGw-6VoF0CwUTXnPX2Lv-182" style="edgeStyle=orthogonalEdgeStyle;rounded=0;orthogonalLoop=1;jettySize=auto;html=1;endArrow=block;endFill=0;entryX=0.5;entryY=1;entryDx=0;entryDy=0;" edge="1" parent="UGw-6VoF0CwUTXnPX2Lv-59" source="UGw-6VoF0CwUTXnPX2Lv-141" target="UGw-6VoF0CwUTXnPX2Lv-140">
          <mxGeometry relative="1" as="geometry">
            <mxPoint x="195" y="80" as="targetPoint" />
            <Array as="points">
              <mxPoint x="90" y="110" />
              <mxPoint x="175" y="110" />
            </Array>
          </mxGeometry>
        </mxCell>
        <mxCell id="UGw-6VoF0CwUTXnPX2Lv-141" value="&lt;font style=&quot;font-size: 16px;&quot;&gt;Dog&lt;/font&gt;" style="swimlane;fontStyle=0;childLayout=stackLayout;horizontal=1;startSize=26;fillColor=#fff2cc;horizontalStack=0;resizeParent=1;resizeParentMax=0;resizeLast=0;collapsible=1;marginBottom=0;whiteSpace=wrap;html=1;strokeColor=#d6b656;" vertex="1" parent="UGw-6VoF0CwUTXnPX2Lv-59">
          <mxGeometry x="25" y="145" width="140" height="50" as="geometry" />
        </mxCell>
        <mxCell id="UGw-6VoF0CwUTXnPX2Lv-156" style="edgeStyle=orthogonalEdgeStyle;rounded=0;orthogonalLoop=1;jettySize=auto;html=1;endArrow=block;endFill=0;entryX=0.5;entryY=1;entryDx=0;entryDy=0;" edge="1" parent="UGw-6VoF0CwUTXnPX2Lv-59" source="UGw-6VoF0CwUTXnPX2Lv-142" target="UGw-6VoF0CwUTXnPX2Lv-140">
          <mxGeometry relative="1" as="geometry">
            <mxPoint x="195" y="80" as="targetPoint" />
            <Array as="points">
              <mxPoint x="265" y="110" />
              <mxPoint x="175" y="110" />
            </Array>
          </mxGeometry>
        </mxCell>
        <mxCell id="UGw-6VoF0CwUTXnPX2Lv-142" value="&lt;font style=&quot;font-size: 16px;&quot;&gt;Cat&lt;/font&gt;" style="swimlane;fontStyle=0;childLayout=stackLayout;horizontal=1;startSize=26;fillColor=#fff2cc;horizontalStack=0;resizeParent=1;resizeParentMax=0;resizeLast=0;collapsible=1;marginBottom=0;whiteSpace=wrap;html=1;strokeColor=#d6b656;" vertex="1" parent="UGw-6VoF0CwUTXnPX2Lv-59">
          <mxGeometry x="195" y="145" width="140" height="50" as="geometry" />
        </mxCell>
        <mxCell id="UGw-6VoF0CwUTXnPX2Lv-61" value="" style="swimlane;startSize=0;" vertex="1" parent="1">
          <mxGeometry x="530" y="1580" width="360" height="240" as="geometry" />
        </mxCell>
        <mxCell id="UGw-6VoF0CwUTXnPX2Lv-62" value="&lt;font style=&quot;font-size: 15px;&quot;&gt;&lt;b&gt;Implementation&lt;/b&gt;&lt;/font&gt;" style="text;html=1;align=left;verticalAlign=middle;whiteSpace=wrap;rounded=0;" vertex="1" parent="UGw-6VoF0CwUTXnPX2Lv-61">
          <mxGeometry x="10" width="70" height="30" as="geometry" />
        </mxCell>
        <mxCell id="UGw-6VoF0CwUTXnPX2Lv-144" style="edgeStyle=orthogonalEdgeStyle;rounded=0;orthogonalLoop=1;jettySize=auto;html=1;entryX=0.5;entryY=0;entryDx=0;entryDy=0;endArrow=block;endFill=0;dashed=1;dashPattern=8 8;" edge="1" parent="UGw-6VoF0CwUTXnPX2Lv-61" source="UGw-6VoF0CwUTXnPX2Lv-145" target="UGw-6VoF0CwUTXnPX2Lv-146">
          <mxGeometry relative="1" as="geometry" />
        </mxCell>
        <mxCell id="UGw-6VoF0CwUTXnPX2Lv-145" value="&lt;font style=&quot;font-size: 16px;&quot;&gt;Drawable&lt;/font&gt;" style="swimlane;fontStyle=0;childLayout=stackLayout;horizontal=1;startSize=26;fillColor=#d5e8d4;horizontalStack=0;resizeParent=1;resizeParentMax=0;resizeLast=0;collapsible=1;marginBottom=0;whiteSpace=wrap;html=1;strokeColor=#82b366;" vertex="1" parent="UGw-6VoF0CwUTXnPX2Lv-61">
          <mxGeometry x="90" y="50" width="180" height="50" as="geometry" />
        </mxCell>
        <mxCell id="UGw-6VoF0CwUTXnPX2Lv-146" value="&lt;font style=&quot;font-size: 16px;&quot;&gt;Circle&lt;/font&gt;" style="swimlane;fontStyle=0;childLayout=stackLayout;horizontal=1;startSize=26;fillColor=#fff2cc;horizontalStack=0;resizeParent=1;resizeParentMax=0;resizeLast=0;collapsible=1;marginBottom=0;whiteSpace=wrap;html=1;strokeColor=#d6b656;" vertex="1" parent="UGw-6VoF0CwUTXnPX2Lv-61">
          <mxGeometry x="90" y="150" width="180" height="50" as="geometry" />
        </mxCell>
        <mxCell id="UGw-6VoF0CwUTXnPX2Lv-97" value="&lt;font style=&quot;font-size: 17px;&quot;&gt;Set&lt;/font&gt;" style="swimlane;fontStyle=0;childLayout=stackLayout;horizontal=1;startSize=40;fillColor=#e1d5e7;horizontalStack=0;resizeParent=1;resizeParentMax=0;resizeLast=0;collapsible=1;marginBottom=0;whiteSpace=wrap;html=1;strokeColor=#9673a6;" vertex="1" parent="1">
          <mxGeometry x="1550" y="910" width="207.5" height="92" as="geometry">
            <mxRectangle x="30" y="30" width="54" height="26" as="alternateBounds" />
          </mxGeometry>
        </mxCell>
        <mxCell id="UGw-6VoF0CwUTXnPX2Lv-98" value="+ insert(T)L: void" style="text;strokeColor=none;fillColor=none;align=left;verticalAlign=top;spacingLeft=4;spacingRight=4;overflow=hidden;rotatable=0;points=[[0,0.5],[1,0.5]];portConstraint=eastwest;whiteSpace=wrap;html=1;" vertex="1" parent="UGw-6VoF0CwUTXnPX2Lv-97">
          <mxGeometry y="40" width="207.5" height="26" as="geometry" />
        </mxCell>
        <mxCell id="UGw-6VoF0CwUTXnPX2Lv-99" value="+ remove(T): T" style="text;strokeColor=none;fillColor=none;align=left;verticalAlign=top;spacingLeft=4;spacingRight=4;overflow=hidden;rotatable=0;points=[[0,0.5],[1,0.5]];portConstraint=eastwest;whiteSpace=wrap;html=1;" vertex="1" parent="UGw-6VoF0CwUTXnPX2Lv-97">
          <mxGeometry y="66" width="207.5" height="26" as="geometry" />
        </mxCell>
        <mxCell id="UGw-6VoF0CwUTXnPX2Lv-63" value="" style="swimlane;startSize=0;" vertex="1" parent="1">
          <mxGeometry x="910" y="1580" width="360" height="240" as="geometry" />
        </mxCell>
        <mxCell id="UGw-6VoF0CwUTXnPX2Lv-64" value="&lt;font style=&quot;font-size: 15px;&quot;&gt;&lt;b&gt;Dependency&lt;/b&gt;&lt;/font&gt;" style="text;html=1;align=left;verticalAlign=middle;whiteSpace=wrap;rounded=0;" vertex="1" parent="UGw-6VoF0CwUTXnPX2Lv-63">
          <mxGeometry x="10" width="70" height="30" as="geometry" />
        </mxCell>
        <mxCell id="UGw-6VoF0CwUTXnPX2Lv-147" style="edgeStyle=orthogonalEdgeStyle;rounded=0;orthogonalLoop=1;jettySize=auto;html=1;entryX=0.5;entryY=0;entryDx=0;entryDy=0;endArrow=open;endFill=0;dashed=1;dashPattern=8 8;" edge="1" parent="UGw-6VoF0CwUTXnPX2Lv-63" source="UGw-6VoF0CwUTXnPX2Lv-148" target="UGw-6VoF0CwUTXnPX2Lv-149">
          <mxGeometry relative="1" as="geometry" />
        </mxCell>
        <mxCell id="UGw-6VoF0CwUTXnPX2Lv-148" value="&lt;font style=&quot;font-size: 16px;&quot;&gt;OrderService&lt;/font&gt;" style="swimlane;fontStyle=0;childLayout=stackLayout;horizontal=1;startSize=26;fillColor=#d5e8d4;horizontalStack=0;resizeParent=1;resizeParentMax=0;resizeLast=0;collapsible=1;marginBottom=0;whiteSpace=wrap;html=1;strokeColor=#82b366;" vertex="1" parent="UGw-6VoF0CwUTXnPX2Lv-63">
          <mxGeometry x="90" y="40" width="180" height="50" as="geometry" />
        </mxCell>
        <mxCell id="UGw-6VoF0CwUTXnPX2Lv-149" value="&lt;font style=&quot;font-size: 16px;&quot;&gt;PaymentProcessor&lt;/font&gt;" style="swimlane;fontStyle=0;childLayout=stackLayout;horizontal=1;startSize=26;fillColor=#fff2cc;horizontalStack=0;resizeParent=1;resizeParentMax=0;resizeLast=0;collapsible=1;marginBottom=0;whiteSpace=wrap;html=1;strokeColor=#d6b656;" vertex="1" parent="UGw-6VoF0CwUTXnPX2Lv-63">
          <mxGeometry x="90" y="140" width="180" height="50" as="geometry" />
        </mxCell>
        <mxCell id="UGw-6VoF0CwUTXnPX2Lv-67" value="" style="endArrow=classic;html=1;rounded=0;dashed=1;dashPattern=8 8;exitX=0.5;exitY=1;exitDx=0;exitDy=0;" edge="1" parent="1" source="UGw-6VoF0CwUTXnPX2Lv-26">
          <mxGeometry width="50" height="50" relative="1" as="geometry">
            <mxPoint x="800" y="670" as="sourcePoint" />
            <mxPoint x="550" y="580" as="targetPoint" />
          </mxGeometry>
        </mxCell>
        <mxCell id="UGw-6VoF0CwUTXnPX2Lv-107" value="&lt;font style=&quot;font-size: 17px;&quot;&gt;Set&lt;/font&gt;" style="rounded=0;whiteSpace=wrap;html=1;fillColor=#e1d5e7;strokeColor=#9673a6;" vertex="1" parent="1">
          <mxGeometry x="1798.75" y="910" width="207.5" height="40" as="geometry" />
        </mxCell>
        <mxCell id="UGw-6VoF0CwUTXnPX2Lv-108" value="" style="rounded=0;whiteSpace=wrap;html=1;fillColor=none;strokeColor=#9673a6;" vertex="1" parent="1">
          <mxGeometry x="1798.75" y="950" width="207.5" height="50" as="geometry" />
        </mxCell>
        <mxCell id="UGw-6VoF0CwUTXnPX2Lv-109" value="+ insert(T): void" style="text;strokeColor=none;fillColor=none;align=left;verticalAlign=top;spacingLeft=4;spacingRight=4;overflow=hidden;rotatable=0;points=[[0,0.5],[1,0.5]];portConstraint=eastwest;whiteSpace=wrap;html=1;" vertex="1" parent="1">
          <mxGeometry x="1798.75" y="950" width="207.5" height="26" as="geometry" />
        </mxCell>
        <mxCell id="UGw-6VoF0CwUTXnPX2Lv-110" value="+ remove(T): T" style="text;strokeColor=none;fillColor=none;align=left;verticalAlign=top;spacingLeft=4;spacingRight=4;overflow=hidden;rotatable=0;points=[[0,0.5],[1,0.5]];portConstraint=eastwest;whiteSpace=wrap;html=1;" vertex="1" parent="1">
          <mxGeometry x="1798.75" y="976" width="207.5" height="26" as="geometry" />
        </mxCell>
        <mxCell id="UGw-6VoF0CwUTXnPX2Lv-111" value="&lt;font style=&quot;font-size: 17px;&quot;&gt;T&lt;/font&gt;" style="rounded=0;whiteSpace=wrap;html=1;dashed=1;dashPattern=12 12;" vertex="1" parent="1">
          <mxGeometry x="1938.75" y="880" width="90" height="50" as="geometry" />
        </mxCell>
        <mxCell id="UGw-6VoF0CwUTXnPX2Lv-126" style="edgeStyle=orthogonalEdgeStyle;rounded=0;orthogonalLoop=1;jettySize=auto;html=1;entryX=0.5;entryY=0;entryDx=0;entryDy=0;endArrow=open;endFill=0;" edge="1" parent="1" source="UGw-6VoF0CwUTXnPX2Lv-121" target="UGw-6VoF0CwUTXnPX2Lv-125">
          <mxGeometry relative="1" as="geometry" />
        </mxCell>
        <mxCell id="UGw-6VoF0CwUTXnPX2Lv-121" value="Customer" style="swimlane;fontStyle=0;childLayout=stackLayout;horizontal=1;startSize=26;fillColor=#d5e8d4;horizontalStack=0;resizeParent=1;resizeParentMax=0;resizeLast=0;collapsible=1;marginBottom=0;whiteSpace=wrap;html=1;strokeColor=#82b366;" vertex="1" parent="1">
          <mxGeometry x="-490" y="1370" width="180" height="50" as="geometry" />
        </mxCell>
        <mxCell id="UGw-6VoF0CwUTXnPX2Lv-125" value="Contacts" style="swimlane;fontStyle=0;childLayout=stackLayout;horizontal=1;startSize=26;fillColor=#fff2cc;horizontalStack=0;resizeParent=1;resizeParentMax=0;resizeLast=0;collapsible=1;marginBottom=0;whiteSpace=wrap;html=1;strokeColor=#d6b656;" vertex="1" parent="1">
          <mxGeometry x="-490" y="1470" width="180" height="50" as="geometry" />
        </mxCell>
        <mxCell id="UGw-6VoF0CwUTXnPX2Lv-127" style="edgeStyle=orthogonalEdgeStyle;rounded=0;orthogonalLoop=1;jettySize=auto;html=1;entryX=0.5;entryY=0;entryDx=0;entryDy=0;endArrow=open;endFill=0;" edge="1" parent="1" source="UGw-6VoF0CwUTXnPX2Lv-128" target="UGw-6VoF0CwUTXnPX2Lv-129">
          <mxGeometry relative="1" as="geometry" />
        </mxCell>
        <mxCell id="UGw-6VoF0CwUTXnPX2Lv-128" value="Car" style="swimlane;fontStyle=0;childLayout=stackLayout;horizontal=1;startSize=26;fillColor=none;horizontalStack=0;resizeParent=1;resizeParentMax=0;resizeLast=0;collapsible=1;marginBottom=0;whiteSpace=wrap;html=1;" vertex="1" parent="1">
          <mxGeometry x="-490" y="1580" width="140" height="52" as="geometry" />
        </mxCell>
        <mxCell id="UGw-6VoF0CwUTXnPX2Lv-129" value="Engin" style="swimlane;fontStyle=0;childLayout=stackLayout;horizontal=1;startSize=26;fillColor=none;horizontalStack=0;resizeParent=1;resizeParentMax=0;resizeLast=0;collapsible=1;marginBottom=0;whiteSpace=wrap;html=1;" vertex="1" parent="1">
          <mxGeometry x="-490" y="1680" width="140" height="52" as="geometry" />
        </mxCell>
        <mxCell id="UGw-6VoF0CwUTXnPX2Lv-150" value="" style="swimlane;startSize=0;" vertex="1" parent="1">
          <mxGeometry x="-540" y="690" width="310" height="240" as="geometry" />
        </mxCell>
        <mxCell id="UGw-6VoF0CwUTXnPX2Lv-153" value="" style="shape=image;verticalLabelPosition=bottom;labelBackgroundColor=default;verticalAlign=top;aspect=fixed;imageAspect=0;image=https://upload.wikimedia.org/wikipedia/commons/thumb/c/c1/Sigma_Software.svg/2560px-Sigma_Software.svg.png;" vertex="1" parent="UGw-6VoF0CwUTXnPX2Lv-150">
          <mxGeometry x="6.600000000000001" y="22" width="296.8" height="210" as="geometry" />
        </mxCell>
        <mxCell id="UGw-6VoF0CwUTXnPX2Lv-158" value="&lt;b&gt;&lt;font style=&quot;font-size: 22px;&quot;&gt;UML Class Diagrams&lt;/font&gt;&lt;/b&gt;" style="text;html=1;align=left;verticalAlign=middle;whiteSpace=wrap;rounded=0;" vertex="1" parent="1">
          <mxGeometry x="150" y="420" width="380" height="50" as="geometry" />
        </mxCell>
        <mxCell id="UGw-6VoF0CwUTXnPX2Lv-161" value="" style="swimlane;startSize=0;" vertex="1" parent="1">
          <mxGeometry x="510" y="770" width="350" height="240" as="geometry" />
        </mxCell>
        <mxCell id="UGw-6VoF0CwUTXnPX2Lv-162" value="&lt;font style=&quot;font-size: 15px;&quot;&gt;&lt;b&gt;Static&lt;/b&gt;&lt;/font&gt;" style="text;html=1;align=left;verticalAlign=middle;whiteSpace=wrap;rounded=0;" vertex="1" parent="UGw-6VoF0CwUTXnPX2Lv-161">
          <mxGeometry x="10" width="70" height="30" as="geometry" />
        </mxCell>
        <mxCell id="UGw-6VoF0CwUTXnPX2Lv-165" value="&lt;font style=&quot;font-size: 16px;&quot;&gt;Widget&lt;/font&gt;" style="swimlane;fontStyle=0;childLayout=stackLayout;horizontal=1;startSize=26;fillColor=light-dark(#FFAC9A,#004A09);horizontalStack=0;resizeParent=1;resizeParentMax=0;resizeLast=0;collapsible=1;marginBottom=0;whiteSpace=wrap;html=1;strokeColor=#6c8ebf;" vertex="1" parent="UGw-6VoF0CwUTXnPX2Lv-161">
          <mxGeometry x="10" y="30" width="170" height="156" as="geometry">
            <mxRectangle x="30" y="30" width="54" height="26" as="alternateBounds" />
          </mxGeometry>
        </mxCell>
        <mxCell id="UGw-6VoF0CwUTXnPX2Lv-166" value="&lt;font style=&quot;font-size: 14px;&quot;&gt;- &lt;u&gt;count: integer&lt;/u&gt;&lt;span style=&quot;white-space: pre;&quot;&gt;&#x9;&lt;/span&gt;&lt;/font&gt;" style="text;strokeColor=none;fillColor=none;align=left;verticalAlign=top;spacingLeft=4;spacingRight=4;overflow=hidden;rotatable=0;points=[[0,0.5],[1,0.5]];portConstraint=eastwest;whiteSpace=wrap;html=1;" vertex="1" parent="UGw-6VoF0CwUTXnPX2Lv-165">
          <mxGeometry y="26" width="170" height="26" as="geometry" />
        </mxCell>
        <mxCell id="UGw-6VoF0CwUTXnPX2Lv-167" value="&lt;font style=&quot;font-size: 14px;&quot;&gt;- color: integer&lt;/font&gt;" style="text;strokeColor=none;fillColor=none;align=left;verticalAlign=top;spacingLeft=4;spacingRight=4;overflow=hidden;rotatable=0;points=[[0,0.5],[1,0.5]];portConstraint=eastwest;whiteSpace=wrap;html=1;" vertex="1" parent="UGw-6VoF0CwUTXnPX2Lv-165">
          <mxGeometry y="52" width="170" height="26" as="geometry" />
        </mxCell>
        <mxCell id="UGw-6VoF0CwUTXnPX2Lv-168" value="&lt;font style=&quot;font-size: 14px;&quot;&gt;- alignment: float&lt;/font&gt;" style="text;strokeColor=none;fillColor=none;align=left;verticalAlign=top;spacingLeft=4;spacingRight=4;overflow=hidden;rotatable=0;points=[[0,0.5],[1,0.5]];portConstraint=eastwest;whiteSpace=wrap;html=1;" vertex="1" parent="UGw-6VoF0CwUTXnPX2Lv-165">
          <mxGeometry y="78" width="170" height="26" as="geometry" />
        </mxCell>
        <mxCell id="UGw-6VoF0CwUTXnPX2Lv-170" value="&lt;font style=&quot;font-size: 14px;&quot;&gt;+ &lt;u&gt;getCount(): integer&lt;/u&gt;&lt;/font&gt;" style="text;strokeColor=none;fillColor=none;align=left;verticalAlign=top;spacingLeft=4;spacingRight=4;overflow=hidden;rotatable=0;points=[[0,0.5],[1,0.5]];portConstraint=eastwest;whiteSpace=wrap;html=1;" vertex="1" parent="UGw-6VoF0CwUTXnPX2Lv-165">
          <mxGeometry y="104" width="170" height="26" as="geometry" />
        </mxCell>
        <mxCell id="UGw-6VoF0CwUTXnPX2Lv-171" value="&lt;font style=&quot;font-size: 14px;&quot;&gt;+ draw(): void&lt;/font&gt;" style="text;strokeColor=none;fillColor=none;align=left;verticalAlign=top;spacingLeft=4;spacingRight=4;overflow=hidden;rotatable=0;points=[[0,0.5],[1,0.5]];portConstraint=eastwest;whiteSpace=wrap;html=1;" vertex="1" parent="UGw-6VoF0CwUTXnPX2Lv-165">
          <mxGeometry y="130" width="170" height="26" as="geometry" />
        </mxCell>
        <mxCell id="UGw-6VoF0CwUTXnPX2Lv-172" value="" style="endArrow=none;html=1;rounded=0;exitX=0.002;exitY=-0.02;exitDx=0;exitDy=0;exitPerimeter=0;entryX=1;entryY=0.022;entryDx=0;entryDy=0;entryPerimeter=0;fillColor=#dae8fc;strokeColor=#6c8ebf;" edge="1" parent="UGw-6VoF0CwUTXnPX2Lv-165" source="UGw-6VoF0CwUTXnPX2Lv-170" target="UGw-6VoF0CwUTXnPX2Lv-170">
          <mxGeometry width="50" height="50" relative="1" as="geometry">
            <mxPoint x="60" y="250" as="sourcePoint" />
            <mxPoint x="110" y="200" as="targetPoint" />
          </mxGeometry>
        </mxCell>
        <mxCell id="UGw-6VoF0CwUTXnPX2Lv-175" value="&lt;font style=&quot;font-size: 16px;&quot;&gt;Static attribute&lt;/font&gt;" style="text;html=1;align=center;verticalAlign=middle;whiteSpace=wrap;rounded=0;" vertex="1" parent="UGw-6VoF0CwUTXnPX2Lv-161">
          <mxGeometry x="220" y="54" width="110" height="30" as="geometry" />
        </mxCell>
        <mxCell id="UGw-6VoF0CwUTXnPX2Lv-176" value="&lt;font style=&quot;font-size: 16px;&quot;&gt;Static method&lt;/font&gt;" style="text;html=1;align=left;verticalAlign=middle;whiteSpace=wrap;rounded=0;" vertex="1" parent="UGw-6VoF0CwUTXnPX2Lv-161">
          <mxGeometry x="220" y="132" width="100" height="30" as="geometry" />
        </mxCell>
        <mxCell id="UGw-6VoF0CwUTXnPX2Lv-179" value="" style="shape=flexArrow;endArrow=classic;html=1;rounded=0;endWidth=10.277777777777777;endSize=4.347222222222222;width=9.444444444444445;" edge="1" parent="UGw-6VoF0CwUTXnPX2Lv-161">
          <mxGeometry width="50" height="50" relative="1" as="geometry">
            <mxPoint x="220" y="68.71000000000004" as="sourcePoint" />
            <mxPoint x="180" y="68.71000000000004" as="targetPoint" />
          </mxGeometry>
        </mxCell>
        <mxCell id="UGw-6VoF0CwUTXnPX2Lv-180" value="" style="shape=flexArrow;endArrow=classic;html=1;rounded=0;endWidth=10.277777777777777;endSize=4.347222222222222;width=9.444444444444445;" edge="1" parent="UGw-6VoF0CwUTXnPX2Lv-161">
          <mxGeometry width="50" height="50" relative="1" as="geometry">
            <mxPoint x="220" y="146.71000000000004" as="sourcePoint" />
            <mxPoint x="180" y="146.71000000000004" as="targetPoint" />
          </mxGeometry>
        </mxCell>
        <mxCell id="UGw-6VoF0CwUTXnPX2Lv-51" value="" style="swimlane;startSize=0;" vertex="1" parent="1">
          <mxGeometry x="860" y="1010" width="310" height="240" as="geometry" />
        </mxCell>
        <mxCell id="UGw-6VoF0CwUTXnPX2Lv-52" value="&lt;font style=&quot;font-size: 15px;&quot;&gt;&lt;b&gt;Templates&lt;/b&gt;&lt;/font&gt;" style="text;html=1;align=left;verticalAlign=middle;whiteSpace=wrap;rounded=0;" vertex="1" parent="UGw-6VoF0CwUTXnPX2Lv-51">
          <mxGeometry x="10" width="70" height="30" as="geometry" />
        </mxCell>
        <mxCell id="UGw-6VoF0CwUTXnPX2Lv-105" value="" style="endArrow=classic;html=1;rounded=0;entryX=1;entryY=1;entryDx=0;entryDy=0;exitX=0.25;exitY=0;exitDx=0;exitDy=0;" edge="1" parent="UGw-6VoF0CwUTXnPX2Lv-51" source="UGw-6VoF0CwUTXnPX2Lv-106" target="UGw-6VoF0CwUTXnPX2Lv-116">
          <mxGeometry width="50" height="50" relative="1" as="geometry">
            <mxPoint x="270" y="110" as="sourcePoint" />
            <mxPoint x="240" y="75.00000000000023" as="targetPoint" />
          </mxGeometry>
        </mxCell>
        <mxCell id="UGw-6VoF0CwUTXnPX2Lv-106" value="Template&lt;div&gt;parameter&lt;/div&gt;" style="text;html=1;align=center;verticalAlign=middle;whiteSpace=wrap;rounded=0;" vertex="1" parent="UGw-6VoF0CwUTXnPX2Lv-51">
          <mxGeometry x="240" y="115" width="60" height="30" as="geometry" />
        </mxCell>
        <mxCell id="UGw-6VoF0CwUTXnPX2Lv-112" value="&lt;font style=&quot;font-size: 17px;&quot;&gt;Set&lt;/font&gt;" style="rounded=0;whiteSpace=wrap;html=1;fillColor=#e1d5e7;strokeColor=#9673a6;" vertex="1" parent="UGw-6VoF0CwUTXnPX2Lv-51">
          <mxGeometry x="10" y="55" width="207.5" height="40" as="geometry" />
        </mxCell>
        <mxCell id="UGw-6VoF0CwUTXnPX2Lv-113" value="" style="rounded=0;whiteSpace=wrap;html=1;fillColor=none;strokeColor=#9673a6;" vertex="1" parent="UGw-6VoF0CwUTXnPX2Lv-51">
          <mxGeometry x="10" y="95" width="207.5" height="50" as="geometry" />
        </mxCell>
        <mxCell id="UGw-6VoF0CwUTXnPX2Lv-114" value="+ insert(T): void" style="text;strokeColor=none;fillColor=none;align=left;verticalAlign=top;spacingLeft=4;spacingRight=4;overflow=hidden;rotatable=0;points=[[0,0.5],[1,0.5]];portConstraint=eastwest;whiteSpace=wrap;html=1;" vertex="1" parent="UGw-6VoF0CwUTXnPX2Lv-51">
          <mxGeometry x="10" y="95" width="207.5" height="26" as="geometry" />
        </mxCell>
        <mxCell id="UGw-6VoF0CwUTXnPX2Lv-115" value="+ remove(T): T" style="text;strokeColor=none;fillColor=none;align=left;verticalAlign=top;spacingLeft=4;spacingRight=4;overflow=hidden;rotatable=0;points=[[0,0.5],[1,0.5]];portConstraint=eastwest;whiteSpace=wrap;html=1;" vertex="1" parent="UGw-6VoF0CwUTXnPX2Lv-51">
          <mxGeometry x="10" y="121" width="207.5" height="26" as="geometry" />
        </mxCell>
        <mxCell id="UGw-6VoF0CwUTXnPX2Lv-116" value="&lt;font style=&quot;font-size: 17px;&quot;&gt;T&lt;/font&gt;" style="rounded=0;whiteSpace=wrap;html=1;dashed=1;dashPattern=12 12;" vertex="1" parent="UGw-6VoF0CwUTXnPX2Lv-51">
          <mxGeometry x="150" y="40" width="80" height="35" as="geometry" />
        </mxCell>
        <mxCell id="UGw-6VoF0CwUTXnPX2Lv-181" value="&lt;b&gt;&lt;font style=&quot;font-size: 22px;&quot;&gt;Relationships&lt;/font&gt;&lt;/b&gt;" style="text;html=1;align=left;verticalAlign=middle;whiteSpace=wrap;rounded=0;" vertex="1" parent="1">
          <mxGeometry x="150" y="1260" width="380" height="50" as="geometry" />
        </mxCell>
        <mxCell id="UGw-6VoF0CwUTXnPX2Lv-183" value="&lt;font style=&quot;font-size: 16px;&quot;&gt;Car&lt;/font&gt;" style="swimlane;fontStyle=0;childLayout=stackLayout;horizontal=1;startSize=26;fillColor=#dae8fc;horizontalStack=0;resizeParent=1;resizeParentMax=0;resizeLast=0;collapsible=1;marginBottom=0;whiteSpace=wrap;html=1;strokeColor=#6c8ebf;" vertex="1" parent="1">
          <mxGeometry x="2230" y="514" width="220" height="182" as="geometry">
            <mxRectangle x="30" y="30" width="54" height="26" as="alternateBounds" />
          </mxGeometry>
        </mxCell>
        <mxCell id="UGw-6VoF0CwUTXnPX2Lv-184" value="&lt;font style=&quot;font-size: 14px;&quot;&gt;- id: integer&lt;span style=&quot;white-space: pre;&quot;&gt;&#x9;&lt;/span&gt;&lt;/font&gt;" style="text;strokeColor=none;fillColor=none;align=left;verticalAlign=top;spacingLeft=4;spacingRight=4;overflow=hidden;rotatable=0;points=[[0,0.5],[1,0.5]];portConstraint=eastwest;whiteSpace=wrap;html=1;" vertex="1" parent="UGw-6VoF0CwUTXnPX2Lv-183">
          <mxGeometry y="26" width="220" height="26" as="geometry" />
        </mxCell>
        <mxCell id="UGw-6VoF0CwUTXnPX2Lv-185" value="&lt;font style=&quot;font-size: 14px;&quot;&gt;- price: double&lt;/font&gt;" style="text;strokeColor=none;fillColor=none;align=left;verticalAlign=top;spacingLeft=4;spacingRight=4;overflow=hidden;rotatable=0;points=[[0,0.5],[1,0.5]];portConstraint=eastwest;whiteSpace=wrap;html=1;" vertex="1" parent="UGw-6VoF0CwUTXnPX2Lv-183">
          <mxGeometry y="52" width="220" height="26" as="geometry" />
        </mxCell>
        <mxCell id="UGw-6VoF0CwUTXnPX2Lv-186" value="&lt;font style=&quot;font-size: 14px;&quot;&gt;- year: Date&lt;/font&gt;" style="text;strokeColor=none;fillColor=none;align=left;verticalAlign=top;spacingLeft=4;spacingRight=4;overflow=hidden;rotatable=0;points=[[0,0.5],[1,0.5]];portConstraint=eastwest;whiteSpace=wrap;html=1;" vertex="1" parent="UGw-6VoF0CwUTXnPX2Lv-183">
          <mxGeometry y="78" width="220" height="26" as="geometry" />
        </mxCell>
        <mxCell id="UGw-6VoF0CwUTXnPX2Lv-187" value="&lt;font style=&quot;font-size: 14px;&quot;&gt;- brand: String&lt;/font&gt;" style="text;strokeColor=none;fillColor=none;align=left;verticalAlign=top;spacingLeft=4;spacingRight=4;overflow=hidden;rotatable=0;points=[[0,0.5],[1,0.5]];portConstraint=eastwest;whiteSpace=wrap;html=1;" vertex="1" parent="UGw-6VoF0CwUTXnPX2Lv-183">
          <mxGeometry y="104" width="220" height="26" as="geometry" />
        </mxCell>
        <mxCell id="UGw-6VoF0CwUTXnPX2Lv-188" value="&lt;font style=&quot;font-size: 14px;&quot;&gt;+ updatePrice(price: double): void&lt;/font&gt;" style="text;strokeColor=none;fillColor=none;align=left;verticalAlign=top;spacingLeft=4;spacingRight=4;overflow=hidden;rotatable=0;points=[[0,0.5],[1,0.5]];portConstraint=eastwest;whiteSpace=wrap;html=1;" vertex="1" parent="UGw-6VoF0CwUTXnPX2Lv-183">
          <mxGeometry y="130" width="220" height="26" as="geometry" />
        </mxCell>
        <mxCell id="UGw-6VoF0CwUTXnPX2Lv-189" value="&lt;font style=&quot;font-size: 14px;&quot;&gt;+ getBrand(): String&lt;/font&gt;" style="text;strokeColor=none;fillColor=none;align=left;verticalAlign=top;spacingLeft=4;spacingRight=4;overflow=hidden;rotatable=0;points=[[0,0.5],[1,0.5]];portConstraint=eastwest;whiteSpace=wrap;html=1;" vertex="1" parent="UGw-6VoF0CwUTXnPX2Lv-183">
          <mxGeometry y="156" width="220" height="26" as="geometry" />
        </mxCell>
        <mxCell id="UGw-6VoF0CwUTXnPX2Lv-190" value="" style="endArrow=none;html=1;rounded=0;exitX=0.002;exitY=-0.02;exitDx=0;exitDy=0;exitPerimeter=0;entryX=1;entryY=0.022;entryDx=0;entryDy=0;entryPerimeter=0;fillColor=#dae8fc;strokeColor=#6c8ebf;" edge="1" parent="UGw-6VoF0CwUTXnPX2Lv-183" source="UGw-6VoF0CwUTXnPX2Lv-188" target="UGw-6VoF0CwUTXnPX2Lv-188">
          <mxGeometry width="50" height="50" relative="1" as="geometry">
            <mxPoint x="60" y="250" as="sourcePoint" />
            <mxPoint x="110" y="200" as="targetPoint" />
          </mxGeometry>
        </mxCell>
        <mxCell id="UGw-6VoF0CwUTXnPX2Lv-191" value="" style="shape=flexArrow;endArrow=classic;html=1;rounded=0;endWidth=10.277777777777777;endSize=4.347222222222222;width=9.444444444444445;" edge="1" parent="1">
          <mxGeometry width="50" height="50" relative="1" as="geometry">
            <mxPoint x="2490" y="597.86" as="sourcePoint" />
            <mxPoint x="2450" y="597.86" as="targetPoint" />
          </mxGeometry>
        </mxCell>
        <mxCell id="UGw-6VoF0CwUTXnPX2Lv-192" value="&lt;font style=&quot;font-size: 16px;&quot;&gt;Attributes&lt;/font&gt;" style="text;html=1;align=center;verticalAlign=middle;whiteSpace=wrap;rounded=0;" vertex="1" parent="1">
          <mxGeometry x="2500" y="583" width="70" height="30" as="geometry" />
        </mxCell>
        <mxCell id="UGw-6VoF0CwUTXnPX2Lv-193" value="" style="shape=flexArrow;endArrow=classic;html=1;rounded=0;endWidth=10.277777777777777;endSize=4.347222222222222;width=9.444444444444445;" edge="1" parent="1">
          <mxGeometry width="50" height="50" relative="1" as="geometry">
            <mxPoint x="2490" y="524.8" as="sourcePoint" />
            <mxPoint x="2450" y="524.8" as="targetPoint" />
          </mxGeometry>
        </mxCell>
        <mxCell id="UGw-6VoF0CwUTXnPX2Lv-194" value="&lt;font style=&quot;font-size: 16px;&quot;&gt;Name&lt;/font&gt;" style="text;html=1;align=center;verticalAlign=middle;whiteSpace=wrap;rounded=0;" vertex="1" parent="1">
          <mxGeometry x="2490" y="510" width="60" height="30" as="geometry" />
        </mxCell>
        <mxCell id="UGw-6VoF0CwUTXnPX2Lv-195" value="" style="shape=flexArrow;endArrow=classic;html=1;rounded=0;endWidth=10.277777777777777;endSize=4.347222222222222;width=9.444444444444445;" edge="1" parent="1">
          <mxGeometry width="50" height="50" relative="1" as="geometry">
            <mxPoint x="2490" y="674" as="sourcePoint" />
            <mxPoint x="2450" y="674" as="targetPoint" />
          </mxGeometry>
        </mxCell>
        <mxCell id="UGw-6VoF0CwUTXnPX2Lv-196" value="&lt;font style=&quot;font-size: 16px;&quot;&gt;Methods&lt;/font&gt;" style="text;html=1;align=center;verticalAlign=middle;whiteSpace=wrap;rounded=0;" vertex="1" parent="1">
          <mxGeometry x="2500" y="664" width="60" height="20" as="geometry" />
        </mxCell>
        <mxCell id="UGw-6VoF0CwUTXnPX2Lv-197" value="visibility" style="rounded=0;whiteSpace=wrap;html=1;fillColor=#fff2cc;strokeColor=#d6b656;" vertex="1" parent="1">
          <mxGeometry x="2590" y="514" width="60" height="36" as="geometry" />
        </mxCell>
        <mxCell id="UGw-6VoF0CwUTXnPX2Lv-198" value="name" style="rounded=0;whiteSpace=wrap;html=1;fillColor=#fff2cc;strokeColor=#d6b656;" vertex="1" parent="1">
          <mxGeometry x="2650" y="514" width="60" height="36" as="geometry" />
        </mxCell>
        <mxCell id="UGw-6VoF0CwUTXnPX2Lv-199" value="type" style="rounded=0;whiteSpace=wrap;html=1;fillColor=#fff2cc;strokeColor=#d6b656;" vertex="1" parent="1">
          <mxGeometry x="2710" y="514" width="60" height="36" as="geometry" />
        </mxCell>
        <mxCell id="UGw-6VoF0CwUTXnPX2Lv-200" value="multiplicity" style="rounded=0;whiteSpace=wrap;html=1;fillColor=#fff2cc;strokeColor=#d6b656;" vertex="1" parent="1">
          <mxGeometry x="2770" y="514" width="70" height="36" as="geometry" />
        </mxCell>
        <mxCell id="UGw-6VoF0CwUTXnPX2Lv-201" value="default value" style="rounded=0;whiteSpace=wrap;html=1;fillColor=#fff2cc;strokeColor=#d6b656;" vertex="1" parent="1">
          <mxGeometry x="2840" y="514" width="80" height="36" as="geometry" />
        </mxCell>
        <mxCell id="UGw-6VoF0CwUTXnPX2Lv-202" value="visibility" style="rounded=0;whiteSpace=wrap;html=1;fillColor=#d5e8d4;strokeColor=#82b366;" vertex="1" parent="1">
          <mxGeometry x="2940" y="514" width="60" height="36" as="geometry" />
        </mxCell>
        <mxCell id="UGw-6VoF0CwUTXnPX2Lv-203" value="name" style="rounded=0;whiteSpace=wrap;html=1;fillColor=#d5e8d4;strokeColor=#82b366;" vertex="1" parent="1">
          <mxGeometry x="3000" y="514" width="60" height="36" as="geometry" />
        </mxCell>
        <mxCell id="UGw-6VoF0CwUTXnPX2Lv-204" value="parameter list" style="rounded=0;whiteSpace=wrap;html=1;fillColor=#d5e8d4;strokeColor=#82b366;" vertex="1" parent="1">
          <mxGeometry x="3060" y="514" width="90" height="36" as="geometry" />
        </mxCell>
        <mxCell id="UGw-6VoF0CwUTXnPX2Lv-205" value="return type" style="rounded=0;whiteSpace=wrap;html=1;fillColor=#d5e8d4;strokeColor=#82b366;" vertex="1" parent="1">
          <mxGeometry x="3150" y="514" width="80" height="36" as="geometry" />
        </mxCell>
        <mxCell id="UGw-6VoF0CwUTXnPX2Lv-206" value="&lt;font style=&quot;font-size: 15px;&quot;&gt;&lt;b&gt;Class&lt;/b&gt;&lt;/font&gt;" style="text;html=1;align=left;verticalAlign=middle;whiteSpace=wrap;rounded=0;" vertex="1" parent="1">
          <mxGeometry x="2230" y="480" width="70" height="30" as="geometry" />
        </mxCell>
        <mxCell id="UGw-6VoF0CwUTXnPX2Lv-207" value="&lt;font style=&quot;font-size: 15px;&quot;&gt;&lt;b&gt;Attributes&lt;/b&gt;&lt;/font&gt;" style="text;html=1;align=left;verticalAlign=middle;whiteSpace=wrap;rounded=0;" vertex="1" parent="1">
          <mxGeometry x="2590" y="480" width="70" height="30" as="geometry" />
        </mxCell>
        <mxCell id="UGw-6VoF0CwUTXnPX2Lv-208" value="&lt;font style=&quot;font-size: 15px;&quot;&gt;&lt;b&gt;Methods&lt;/b&gt;&lt;/font&gt;" style="text;html=1;align=left;verticalAlign=middle;whiteSpace=wrap;rounded=0;" vertex="1" parent="1">
          <mxGeometry x="2940" y="480" width="70" height="30" as="geometry" />
        </mxCell>
        <mxCell id="UGw-6VoF0CwUTXnPX2Lv-209" value="" style="swimlane;startSize=0;" vertex="1" parent="1">
          <mxGeometry x="2220" y="480" width="360" height="300" as="geometry" />
        </mxCell>
        <mxCell id="UGw-6VoF0CwUTXnPX2Lv-298" value="&lt;font style=&quot;font-size: 13px;&quot;&gt;A &lt;b&gt;&lt;i&gt;class&lt;/i&gt;&amp;nbsp;&lt;/b&gt;is a blueprint that defines the attributes and behavior of an object&lt;/font&gt;" style="text;html=1;align=left;verticalAlign=middle;whiteSpace=wrap;rounded=0;" vertex="1" parent="UGw-6VoF0CwUTXnPX2Lv-209">
          <mxGeometry x="10" y="250" width="330" height="30" as="geometry" />
        </mxCell>
        <mxCell id="UGw-6VoF0CwUTXnPX2Lv-210" value="" style="swimlane;startSize=0;" vertex="1" parent="1">
          <mxGeometry x="2580" y="480" width="350" height="300" as="geometry" />
        </mxCell>
        <mxCell id="UGw-6VoF0CwUTXnPX2Lv-211" value="&lt;font style=&quot;font-size: 15px;&quot;&gt;&amp;nbsp;- description: String = &quot;Default text for description&quot;&lt;/font&gt;" style="text;html=1;align=left;verticalAlign=middle;whiteSpace=wrap;rounded=0;" vertex="1" parent="UGw-6VoF0CwUTXnPX2Lv-210">
          <mxGeometry x="10" y="160" width="340" height="30" as="geometry" />
        </mxCell>
        <mxCell id="UGw-6VoF0CwUTXnPX2Lv-212" value="&lt;font style=&quot;font-size: 15px;&quot;&gt;&amp;nbsp;# customerContacts: Contact [0..*]&lt;/font&gt;" style="text;html=1;align=left;verticalAlign=middle;whiteSpace=wrap;rounded=0;" vertex="1" parent="UGw-6VoF0CwUTXnPX2Lv-210">
          <mxGeometry x="10" y="120" width="250" height="30" as="geometry" />
        </mxCell>
        <mxCell id="UGw-6VoF0CwUTXnPX2Lv-213" value="" style="endArrow=classic;html=1;rounded=0;dashed=1;dashPattern=8 8;exitX=0.5;exitY=1;exitDx=0;exitDy=0;" edge="1" parent="UGw-6VoF0CwUTXnPX2Lv-210">
          <mxGeometry width="50" height="50" relative="1" as="geometry">
            <mxPoint x="100" y="70" as="sourcePoint" />
            <mxPoint x="100" y="110" as="targetPoint" />
          </mxGeometry>
        </mxCell>
        <mxCell id="UGw-6VoF0CwUTXnPX2Lv-214" value="" style="endArrow=classic;html=1;rounded=0;dashed=1;dashPattern=8 8;exitX=0.5;exitY=1;exitDx=0;exitDy=0;" edge="1" parent="UGw-6VoF0CwUTXnPX2Lv-210">
          <mxGeometry width="50" height="50" relative="1" as="geometry">
            <mxPoint x="160" y="70" as="sourcePoint" />
            <mxPoint x="160" y="110" as="targetPoint" />
          </mxGeometry>
        </mxCell>
        <mxCell id="UGw-6VoF0CwUTXnPX2Lv-215" value="" style="endArrow=classic;html=1;rounded=0;dashed=1;dashPattern=8 8;exitX=0.5;exitY=1;exitDx=0;exitDy=0;" edge="1" parent="UGw-6VoF0CwUTXnPX2Lv-210">
          <mxGeometry width="50" height="50" relative="1" as="geometry">
            <mxPoint x="220" y="70" as="sourcePoint" />
            <mxPoint x="220" y="110" as="targetPoint" />
          </mxGeometry>
        </mxCell>
        <mxCell id="UGw-6VoF0CwUTXnPX2Lv-216" value="" style="endArrow=classic;html=1;rounded=0;dashed=1;dashPattern=8 8;exitX=0.5;exitY=1;exitDx=0;exitDy=0;entryX=0.856;entryY=0.064;entryDx=0;entryDy=0;entryPerimeter=0;" edge="1" parent="UGw-6VoF0CwUTXnPX2Lv-210" target="UGw-6VoF0CwUTXnPX2Lv-211">
          <mxGeometry width="50" height="50" relative="1" as="geometry">
            <mxPoint x="300" y="70" as="sourcePoint" />
            <mxPoint x="300" y="110" as="targetPoint" />
          </mxGeometry>
        </mxCell>
        <mxCell id="UGw-6VoF0CwUTXnPX2Lv-299" value="&lt;font style=&quot;font-size: 13px;&quot;&gt;&lt;i style=&quot;font-weight: bold;&quot;&gt;Attributes&lt;/i&gt;&amp;nbsp;represent the data fields of the class&lt;/font&gt;" style="text;html=1;align=left;verticalAlign=middle;whiteSpace=wrap;rounded=0;" vertex="1" parent="UGw-6VoF0CwUTXnPX2Lv-210">
          <mxGeometry x="10" y="250" width="330" height="30" as="geometry" />
        </mxCell>
        <mxCell id="UGw-6VoF0CwUTXnPX2Lv-217" value="" style="swimlane;startSize=0;" vertex="1" parent="1">
          <mxGeometry x="2930" y="480" width="310" height="300" as="geometry" />
        </mxCell>
        <mxCell id="UGw-6VoF0CwUTXnPX2Lv-218" value="&lt;font style=&quot;font-size: 15px;&quot;&gt;&amp;nbsp;+ calculatePrice(input: String): double&lt;/font&gt;" style="text;html=1;align=left;verticalAlign=middle;whiteSpace=wrap;rounded=0;" vertex="1" parent="UGw-6VoF0CwUTXnPX2Lv-217">
          <mxGeometry x="10" y="120" width="280" height="30" as="geometry" />
        </mxCell>
        <mxCell id="UGw-6VoF0CwUTXnPX2Lv-219" value="" style="endArrow=classic;html=1;rounded=0;dashed=1;dashPattern=8 8;exitX=0.5;exitY=1;exitDx=0;exitDy=0;" edge="1" parent="UGw-6VoF0CwUTXnPX2Lv-217">
          <mxGeometry width="50" height="50" relative="1" as="geometry">
            <mxPoint x="40" y="70" as="sourcePoint" />
            <mxPoint x="40" y="110" as="targetPoint" />
          </mxGeometry>
        </mxCell>
        <mxCell id="UGw-6VoF0CwUTXnPX2Lv-220" value="" style="endArrow=classic;html=1;rounded=0;dashed=1;dashPattern=8 8;exitX=0.5;exitY=1;exitDx=0;exitDy=0;" edge="1" parent="UGw-6VoF0CwUTXnPX2Lv-217">
          <mxGeometry width="50" height="50" relative="1" as="geometry">
            <mxPoint x="100" y="70" as="sourcePoint" />
            <mxPoint x="100" y="110" as="targetPoint" />
          </mxGeometry>
        </mxCell>
        <mxCell id="UGw-6VoF0CwUTXnPX2Lv-221" value="" style="endArrow=classic;html=1;rounded=0;dashed=1;dashPattern=8 8;exitX=0.5;exitY=1;exitDx=0;exitDy=0;" edge="1" parent="UGw-6VoF0CwUTXnPX2Lv-217">
          <mxGeometry width="50" height="50" relative="1" as="geometry">
            <mxPoint x="170" y="70" as="sourcePoint" />
            <mxPoint x="170" y="110" as="targetPoint" />
          </mxGeometry>
        </mxCell>
        <mxCell id="UGw-6VoF0CwUTXnPX2Lv-222" value="" style="endArrow=classic;html=1;rounded=0;dashed=1;dashPattern=8 8;exitX=0.5;exitY=1;exitDx=0;exitDy=0;" edge="1" parent="UGw-6VoF0CwUTXnPX2Lv-217">
          <mxGeometry width="50" height="50" relative="1" as="geometry">
            <mxPoint x="260" y="70" as="sourcePoint" />
            <mxPoint x="260" y="110" as="targetPoint" />
          </mxGeometry>
        </mxCell>
        <mxCell id="UGw-6VoF0CwUTXnPX2Lv-223" value="&lt;font style=&quot;font-size: 15px;&quot;&gt;&amp;nbsp;~ serialize(obj: Object): String&lt;/font&gt;" style="text;html=1;align=left;verticalAlign=middle;whiteSpace=wrap;rounded=0;" vertex="1" parent="UGw-6VoF0CwUTXnPX2Lv-217">
          <mxGeometry x="10" y="160" width="280" height="30" as="geometry" />
        </mxCell>
        <mxCell id="UGw-6VoF0CwUTXnPX2Lv-300" value="&lt;font style=&quot;font-size: 13px;&quot;&gt;&lt;i style=&quot;font-weight: bold;&quot;&gt;Methods&lt;/i&gt;&amp;nbsp;represent the behavior supported by the class&lt;/font&gt;" style="text;html=1;align=left;verticalAlign=middle;whiteSpace=wrap;rounded=0;" vertex="1" parent="UGw-6VoF0CwUTXnPX2Lv-217">
          <mxGeometry x="10" y="250" width="290" height="30" as="geometry" />
        </mxCell>
        <mxCell id="UGw-6VoF0CwUTXnPX2Lv-224" value="" style="swimlane;startSize=0;" vertex="1" parent="1">
          <mxGeometry x="2220" y="780" width="360" height="240" as="geometry" />
        </mxCell>
        <mxCell id="UGw-6VoF0CwUTXnPX2Lv-225" value="&lt;font style=&quot;font-size: 15px;&quot;&gt;&lt;b&gt;Visibility&lt;/b&gt;&lt;/font&gt;" style="text;html=1;align=left;verticalAlign=middle;whiteSpace=wrap;rounded=0;" vertex="1" parent="UGw-6VoF0CwUTXnPX2Lv-224">
          <mxGeometry x="10" width="70" height="30" as="geometry" />
        </mxCell>
        <mxCell id="UGw-6VoF0CwUTXnPX2Lv-226" value="&lt;b&gt;&lt;font style=&quot;font-size: 22px;&quot;&gt;+&amp;nbsp;&amp;nbsp;&lt;/font&gt;&lt;/b&gt;&lt;span style=&quot;font-size: 18px;&quot;&gt;public&amp;nbsp;&lt;br&gt;&lt;/span&gt;&lt;div&gt;&lt;b style=&quot;background-color: transparent; color: light-dark(rgb(0, 0, 0), rgb(255, 255, 255));&quot;&gt;&lt;font style=&quot;font-size: 22px;&quot;&gt;-&amp;nbsp; &amp;nbsp;&lt;/font&gt;&lt;/b&gt;&lt;span style=&quot;background-color: transparent; color: light-dark(rgb(0, 0, 0), rgb(255, 255, 255)); font-size: 18px;&quot;&gt;private&lt;br&gt;&lt;/span&gt;&lt;/div&gt;&lt;div&gt;&lt;b style=&quot;background-color: transparent; color: light-dark(rgb(0, 0, 0), rgb(255, 255, 255));&quot;&gt;&lt;font style=&quot;font-size: 22px;&quot;&gt;#&amp;nbsp;&amp;nbsp;&lt;/font&gt;&lt;/b&gt;&lt;span style=&quot;font-size: 18px; background-color: transparent; color: light-dark(rgb(0, 0, 0), rgb(255, 255, 255));&quot;&gt;protected&lt;br&gt;&lt;/span&gt;&lt;/div&gt;&lt;div&gt;&lt;b style=&quot;background-color: transparent; color: light-dark(rgb(0, 0, 0), rgb(255, 255, 255)); font-size: 22px;&quot;&gt;~&amp;nbsp;&amp;nbsp;&lt;/b&gt;&lt;span style=&quot;font-size: 18px; background-color: transparent; color: light-dark(rgb(0, 0, 0), rgb(255, 255, 255));&quot;&gt;package-private&lt;/span&gt;&lt;/div&gt;" style="text;html=1;align=left;verticalAlign=middle;whiteSpace=wrap;rounded=0;" vertex="1" parent="UGw-6VoF0CwUTXnPX2Lv-224">
          <mxGeometry x="10" y="50" width="170" height="120" as="geometry" />
        </mxCell>
        <mxCell id="UGw-6VoF0CwUTXnPX2Lv-301" value="&lt;font style=&quot;font-size: 13px;&quot;&gt;&lt;i style=&quot;font-weight: bold;&quot;&gt;Visibility&lt;/i&gt;&amp;nbsp;controls access to attributes and methods from other classes&lt;/font&gt;" style="text;html=1;align=left;verticalAlign=middle;whiteSpace=wrap;rounded=0;" vertex="1" parent="UGw-6VoF0CwUTXnPX2Lv-224">
          <mxGeometry x="10" y="200" width="340" height="30" as="geometry" />
        </mxCell>
        <mxCell id="UGw-6VoF0CwUTXnPX2Lv-227" value="" style="swimlane;startSize=0;" vertex="1" parent="1">
          <mxGeometry x="2930" y="780" width="310" height="240" as="geometry" />
        </mxCell>
        <mxCell id="UGw-6VoF0CwUTXnPX2Lv-228" value="&lt;font style=&quot;font-size: 15px;&quot;&gt;&lt;b&gt;Multiplicity&lt;/b&gt;&lt;/font&gt;" style="text;html=1;align=left;verticalAlign=middle;whiteSpace=wrap;rounded=0;" vertex="1" parent="UGw-6VoF0CwUTXnPX2Lv-227">
          <mxGeometry x="10" width="70" height="30" as="geometry" />
        </mxCell>
        <mxCell id="UGw-6VoF0CwUTXnPX2Lv-229" value="&lt;ul&gt;&lt;li&gt;&lt;font style=&quot;&quot;&gt;&lt;font style=&quot;font-size: 15px;&quot;&gt;&lt;b&gt;0..1&lt;/b&gt;&amp;nbsp; &amp;nbsp;- zero or one&lt;br&gt;&lt;br&gt;&lt;/font&gt;&lt;/font&gt;&lt;/li&gt;&lt;li&gt;&lt;font style=&quot;&quot;&gt;&lt;font style=&quot;font-size: 15px;&quot;&gt;&lt;b&gt;1&lt;/b&gt;&amp;nbsp; &amp;nbsp; &amp;nbsp; &amp;nbsp;- exactly one&lt;br&gt;&lt;br&gt;&lt;/font&gt;&lt;/font&gt;&lt;/li&gt;&lt;li&gt;&lt;font style=&quot;&quot;&gt;&lt;font style=&quot;font-size: 15px;&quot;&gt;&lt;b&gt;0..*&lt;/b&gt;&amp;nbsp; &amp;nbsp;- many, optional&lt;br&gt;&lt;br&gt;&lt;/font&gt;&lt;/font&gt;&lt;/li&gt;&lt;li&gt;&lt;font style=&quot;font-size: 15px;&quot;&gt;&lt;b&gt;1..*&lt;/b&gt;&amp;nbsp; &amp;nbsp;- many, mandatory&lt;br&gt;&lt;br&gt;&lt;/font&gt;&lt;/li&gt;&lt;li&gt;&lt;font style=&quot;font-size: 15px;&quot;&gt;&lt;b&gt;n&lt;/b&gt;&amp;nbsp; &amp;nbsp; &amp;nbsp; - exactly &lt;i&gt;n &lt;/i&gt;instances&lt;br&gt;&lt;br&gt;&lt;/font&gt;&lt;/li&gt;&lt;li&gt;&lt;font style=&quot;font-size: 15px;&quot;&gt;&lt;b&gt;n..m&lt;/b&gt; - from &lt;i style=&quot;&quot;&gt;n&lt;/i&gt; to &lt;i style=&quot;&quot;&gt;m&lt;/i&gt; instances&lt;/font&gt;&lt;/li&gt;&lt;/ul&gt;" style="text;html=1;align=left;verticalAlign=middle;whiteSpace=wrap;rounded=0;" vertex="1" parent="UGw-6VoF0CwUTXnPX2Lv-227">
          <mxGeometry x="-10" y="30" width="250" height="210" as="geometry" />
        </mxCell>
        <mxCell id="UGw-6VoF0CwUTXnPX2Lv-230" value="" style="swimlane;startSize=0;" vertex="1" parent="1">
          <mxGeometry x="2220" y="1020" width="360" height="240" as="geometry" />
        </mxCell>
        <mxCell id="UGw-6VoF0CwUTXnPX2Lv-231" value="&lt;font style=&quot;font-size: 15px;&quot;&gt;&lt;b&gt;Interface&lt;/b&gt;&lt;/font&gt;" style="text;html=1;align=left;verticalAlign=middle;whiteSpace=wrap;rounded=0;" vertex="1" parent="UGw-6VoF0CwUTXnPX2Lv-230">
          <mxGeometry x="10" width="70" height="30" as="geometry" />
        </mxCell>
        <mxCell id="UGw-6VoF0CwUTXnPX2Lv-232" value="&lt;font style=&quot;font-size: 16px;&quot;&gt;&amp;lt;&amp;lt;interface&amp;gt;&amp;gt;&lt;br&gt;Validator&lt;/font&gt;" style="swimlane;fontStyle=0;childLayout=stackLayout;horizontal=1;startSize=40;fillColor=#d5e8d4;horizontalStack=0;resizeParent=1;resizeParentMax=0;resizeLast=0;collapsible=1;marginBottom=0;whiteSpace=wrap;html=1;strokeColor=#82b366;" vertex="1" parent="UGw-6VoF0CwUTXnPX2Lv-230">
          <mxGeometry x="40" y="30" width="275" height="92" as="geometry">
            <mxRectangle x="30" y="30" width="54" height="26" as="alternateBounds" />
          </mxGeometry>
        </mxCell>
        <mxCell id="UGw-6VoF0CwUTXnPX2Lv-233" value="&lt;font style=&quot;font-size: 14px;&quot;&gt;+ isApplicable(contract: Contract): boolean&lt;/font&gt;" style="text;strokeColor=none;fillColor=none;align=left;verticalAlign=top;spacingLeft=4;spacingRight=4;overflow=hidden;rotatable=0;points=[[0,0.5],[1,0.5]];portConstraint=eastwest;whiteSpace=wrap;html=1;" vertex="1" parent="UGw-6VoF0CwUTXnPX2Lv-232">
          <mxGeometry y="40" width="275" height="26" as="geometry" />
        </mxCell>
        <mxCell id="UGw-6VoF0CwUTXnPX2Lv-234" value="&lt;font style=&quot;font-size: 14px;&quot;&gt;+ validate(contract Contract): void&lt;/font&gt;" style="text;strokeColor=none;fillColor=none;align=left;verticalAlign=top;spacingLeft=4;spacingRight=4;overflow=hidden;rotatable=0;points=[[0,0.5],[1,0.5]];portConstraint=eastwest;whiteSpace=wrap;html=1;" vertex="1" parent="UGw-6VoF0CwUTXnPX2Lv-232">
          <mxGeometry y="66" width="275" height="26" as="geometry" />
        </mxCell>
        <mxCell id="UGw-6VoF0CwUTXnPX2Lv-304" value="&lt;i style=&quot;font-weight: bold;&quot;&gt;Interface &lt;/i&gt;defines a &lt;strong data-start=&quot;1554&quot; data-end=&quot;1577&quot;&gt;contract of methods&lt;/strong&gt; a class must implement" style="text;whiteSpace=wrap;html=1;" vertex="1" parent="UGw-6VoF0CwUTXnPX2Lv-230">
          <mxGeometry x="15" y="190" width="330" height="40" as="geometry" />
        </mxCell>
        <mxCell id="UGw-6VoF0CwUTXnPX2Lv-235" value="" style="swimlane;startSize=0;" vertex="1" parent="1">
          <mxGeometry x="2580" y="1020" width="350" height="240" as="geometry" />
        </mxCell>
        <mxCell id="UGw-6VoF0CwUTXnPX2Lv-236" value="&lt;font style=&quot;font-size: 15px;&quot;&gt;&lt;b&gt;Enumeration&lt;/b&gt;&lt;/font&gt;" style="text;html=1;align=left;verticalAlign=middle;whiteSpace=wrap;rounded=0;" vertex="1" parent="UGw-6VoF0CwUTXnPX2Lv-235">
          <mxGeometry x="10" width="70" height="30" as="geometry" />
        </mxCell>
        <mxCell id="UGw-6VoF0CwUTXnPX2Lv-237" value="&lt;font style=&quot;font-size: 16px;&quot;&gt;&amp;lt;&amp;lt;enumeration&amp;gt;&lt;br&gt;ContractStatus&lt;/font&gt;" style="swimlane;fontStyle=0;childLayout=stackLayout;horizontal=1;startSize=40;fillColor=#ffe6cc;horizontalStack=0;resizeParent=1;resizeParentMax=0;resizeLast=0;collapsible=1;marginBottom=0;whiteSpace=wrap;html=1;strokeColor=#d79b00;" vertex="1" parent="UGw-6VoF0CwUTXnPX2Lv-235">
          <mxGeometry x="43.75" y="30" width="252.5" height="118" as="geometry">
            <mxRectangle x="30" y="30" width="54" height="26" as="alternateBounds" />
          </mxGeometry>
        </mxCell>
        <mxCell id="UGw-6VoF0CwUTXnPX2Lv-238" value="&lt;font style=&quot;font-size: 14px;&quot;&gt;&lt;b&gt;OPEN&lt;/b&gt;&lt;/font&gt;" style="text;strokeColor=none;fillColor=none;align=left;verticalAlign=top;spacingLeft=4;spacingRight=4;overflow=hidden;rotatable=0;points=[[0,0.5],[1,0.5]];portConstraint=eastwest;whiteSpace=wrap;html=1;" vertex="1" parent="UGw-6VoF0CwUTXnPX2Lv-237">
          <mxGeometry y="40" width="252.5" height="26" as="geometry" />
        </mxCell>
        <mxCell id="UGw-6VoF0CwUTXnPX2Lv-239" value="&lt;font style=&quot;font-size: 14px;&quot;&gt;&lt;b&gt;DELETED&lt;/b&gt;&lt;/font&gt;" style="text;strokeColor=none;fillColor=none;align=left;verticalAlign=top;spacingLeft=4;spacingRight=4;overflow=hidden;rotatable=0;points=[[0,0.5],[1,0.5]];portConstraint=eastwest;whiteSpace=wrap;html=1;" vertex="1" parent="UGw-6VoF0CwUTXnPX2Lv-237">
          <mxGeometry y="66" width="252.5" height="26" as="geometry" />
        </mxCell>
        <mxCell id="UGw-6VoF0CwUTXnPX2Lv-240" value="&lt;font style=&quot;font-size: 14px;&quot;&gt;&lt;b&gt;DRAFT&lt;/b&gt;&lt;/font&gt;" style="text;strokeColor=none;fillColor=none;align=left;verticalAlign=top;spacingLeft=4;spacingRight=4;overflow=hidden;rotatable=0;points=[[0,0.5],[1,0.5]];portConstraint=eastwest;whiteSpace=wrap;html=1;" vertex="1" parent="UGw-6VoF0CwUTXnPX2Lv-237">
          <mxGeometry y="92" width="252.5" height="26" as="geometry" />
        </mxCell>
        <mxCell id="UGw-6VoF0CwUTXnPX2Lv-305" value="&lt;b&gt;&lt;i&gt;Enumeration&lt;/i&gt;&lt;/b&gt; defines a list of &lt;strong data-start=&quot;1693&quot; data-end=&quot;1718&quot;&gt;fixed constant values&lt;/strong&gt;" style="text;whiteSpace=wrap;html=1;" vertex="1" parent="UGw-6VoF0CwUTXnPX2Lv-235">
          <mxGeometry x="10" y="190" width="300" height="40" as="geometry" />
        </mxCell>
        <mxCell id="UGw-6VoF0CwUTXnPX2Lv-241" value="" style="swimlane;startSize=0;" vertex="1" parent="1">
          <mxGeometry x="2220" y="1320" width="360" height="240" as="geometry" />
        </mxCell>
        <mxCell id="UGw-6VoF0CwUTXnPX2Lv-242" value="&lt;font style=&quot;font-size: 15px;&quot;&gt;&lt;b&gt;Association&lt;/b&gt;&lt;/font&gt;" style="text;html=1;align=left;verticalAlign=middle;whiteSpace=wrap;rounded=0;" vertex="1" parent="UGw-6VoF0CwUTXnPX2Lv-241">
          <mxGeometry x="10" width="70" height="30" as="geometry" />
        </mxCell>
        <mxCell id="UGw-6VoF0CwUTXnPX2Lv-243" style="edgeStyle=orthogonalEdgeStyle;rounded=0;orthogonalLoop=1;jettySize=auto;html=1;entryX=0.5;entryY=0;entryDx=0;entryDy=0;endArrow=none;endFill=0;startFill=0;" edge="1" parent="UGw-6VoF0CwUTXnPX2Lv-241" source="UGw-6VoF0CwUTXnPX2Lv-244" target="UGw-6VoF0CwUTXnPX2Lv-245">
          <mxGeometry relative="1" as="geometry" />
        </mxCell>
        <mxCell id="UGw-6VoF0CwUTXnPX2Lv-244" value="&lt;font style=&quot;font-size: 16px;&quot;&gt;Customer&lt;/font&gt;" style="swimlane;fontStyle=0;childLayout=stackLayout;horizontal=1;startSize=26;fillColor=#d5e8d4;horizontalStack=0;resizeParent=1;resizeParentMax=0;resizeLast=0;collapsible=1;marginBottom=0;whiteSpace=wrap;html=1;strokeColor=#82b366;" vertex="1" parent="UGw-6VoF0CwUTXnPX2Lv-241">
          <mxGeometry x="90" y="40" width="180" height="50" as="geometry" />
        </mxCell>
        <mxCell id="UGw-6VoF0CwUTXnPX2Lv-245" value="&lt;font style=&quot;font-size: 16px;&quot;&gt;Order&lt;/font&gt;" style="swimlane;fontStyle=0;childLayout=stackLayout;horizontal=1;startSize=26;fillColor=#fff2cc;horizontalStack=0;resizeParent=1;resizeParentMax=0;resizeLast=0;collapsible=1;marginBottom=0;whiteSpace=wrap;html=1;strokeColor=#d6b656;" vertex="1" parent="UGw-6VoF0CwUTXnPX2Lv-241">
          <mxGeometry x="90" y="140" width="180" height="50" as="geometry" />
        </mxCell>
        <mxCell id="UGw-6VoF0CwUTXnPX2Lv-310" value="A &quot;uses-a&quot; relationship" style="text;whiteSpace=wrap;html=1;align=center;" vertex="1" parent="UGw-6VoF0CwUTXnPX2Lv-241">
          <mxGeometry x="40" y="210" width="261.25" height="30" as="geometry" />
        </mxCell>
        <mxCell id="UGw-6VoF0CwUTXnPX2Lv-246" value="" style="swimlane;startSize=0;" vertex="1" parent="1">
          <mxGeometry x="2580" y="1320" width="360" height="240" as="geometry" />
        </mxCell>
        <mxCell id="UGw-6VoF0CwUTXnPX2Lv-247" value="&lt;font style=&quot;font-size: 15px;&quot;&gt;&lt;b&gt;Aggregation&lt;/b&gt;&lt;/font&gt;" style="text;html=1;align=left;verticalAlign=middle;whiteSpace=wrap;rounded=0;" vertex="1" parent="UGw-6VoF0CwUTXnPX2Lv-246">
          <mxGeometry x="10" width="70" height="30" as="geometry" />
        </mxCell>
        <mxCell id="UGw-6VoF0CwUTXnPX2Lv-248" style="edgeStyle=orthogonalEdgeStyle;rounded=0;orthogonalLoop=1;jettySize=auto;html=1;entryX=0.5;entryY=0;entryDx=0;entryDy=0;endArrow=diamond;endFill=0;" edge="1" parent="UGw-6VoF0CwUTXnPX2Lv-246" source="UGw-6VoF0CwUTXnPX2Lv-249" target="UGw-6VoF0CwUTXnPX2Lv-250">
          <mxGeometry relative="1" as="geometry" />
        </mxCell>
        <mxCell id="UGw-6VoF0CwUTXnPX2Lv-249" value="&lt;font style=&quot;font-size: 16px;&quot;&gt;Department&lt;/font&gt;" style="swimlane;fontStyle=0;childLayout=stackLayout;horizontal=1;startSize=26;fillColor=#d5e8d4;horizontalStack=0;resizeParent=1;resizeParentMax=0;resizeLast=0;collapsible=1;marginBottom=0;whiteSpace=wrap;html=1;strokeColor=#82b366;" vertex="1" parent="UGw-6VoF0CwUTXnPX2Lv-246">
          <mxGeometry x="100" y="40" width="180" height="50" as="geometry" />
        </mxCell>
        <mxCell id="UGw-6VoF0CwUTXnPX2Lv-250" value="&lt;font style=&quot;font-size: 16px;&quot;&gt;Professor&lt;/font&gt;" style="swimlane;fontStyle=0;childLayout=stackLayout;horizontal=1;startSize=26;fillColor=#fff2cc;horizontalStack=0;resizeParent=1;resizeParentMax=0;resizeLast=0;collapsible=1;marginBottom=0;whiteSpace=wrap;html=1;strokeColor=#d6b656;" vertex="1" parent="UGw-6VoF0CwUTXnPX2Lv-246">
          <mxGeometry x="100" y="140" width="180" height="50" as="geometry" />
        </mxCell>
        <mxCell id="UGw-6VoF0CwUTXnPX2Lv-306" value="A &quot;has-a&quot; relationship with &lt;span data-end=&quot;1927&quot; data-start=&quot;1907&quot;&gt;shared ownership&lt;/span&gt;" style="text;whiteSpace=wrap;html=1;align=center;" vertex="1" parent="UGw-6VoF0CwUTXnPX2Lv-246">
          <mxGeometry x="59.38000000000011" y="210" width="261.25" height="30" as="geometry" />
        </mxCell>
        <mxCell id="UGw-6VoF0CwUTXnPX2Lv-251" value="" style="swimlane;startSize=0;" vertex="1" parent="1">
          <mxGeometry x="2940" y="1320" width="360" height="240" as="geometry" />
        </mxCell>
        <mxCell id="UGw-6VoF0CwUTXnPX2Lv-252" value="&lt;font style=&quot;font-size: 15px;&quot;&gt;&lt;b&gt;Composition&lt;/b&gt;&lt;/font&gt;" style="text;html=1;align=left;verticalAlign=middle;whiteSpace=wrap;rounded=0;" vertex="1" parent="UGw-6VoF0CwUTXnPX2Lv-251">
          <mxGeometry x="10" width="70" height="30" as="geometry" />
        </mxCell>
        <mxCell id="UGw-6VoF0CwUTXnPX2Lv-253" style="edgeStyle=orthogonalEdgeStyle;rounded=0;orthogonalLoop=1;jettySize=auto;html=1;entryX=0.5;entryY=0;entryDx=0;entryDy=0;endArrow=diamond;endFill=1;" edge="1" parent="UGw-6VoF0CwUTXnPX2Lv-251" source="UGw-6VoF0CwUTXnPX2Lv-254" target="UGw-6VoF0CwUTXnPX2Lv-255">
          <mxGeometry relative="1" as="geometry" />
        </mxCell>
        <mxCell id="UGw-6VoF0CwUTXnPX2Lv-254" value="&lt;font style=&quot;font-size: 16px;&quot;&gt;House&lt;/font&gt;" style="swimlane;fontStyle=0;childLayout=stackLayout;horizontal=1;startSize=26;fillColor=#d5e8d4;horizontalStack=0;resizeParent=1;resizeParentMax=0;resizeLast=0;collapsible=1;marginBottom=0;whiteSpace=wrap;html=1;strokeColor=#82b366;" vertex="1" parent="UGw-6VoF0CwUTXnPX2Lv-251">
          <mxGeometry x="100" y="40" width="180" height="50" as="geometry" />
        </mxCell>
        <mxCell id="UGw-6VoF0CwUTXnPX2Lv-255" value="&lt;font style=&quot;font-size: 16px;&quot;&gt;Room&lt;/font&gt;" style="swimlane;fontStyle=0;childLayout=stackLayout;horizontal=1;startSize=26;fillColor=#fff2cc;horizontalStack=0;resizeParent=1;resizeParentMax=0;resizeLast=0;collapsible=1;marginBottom=0;whiteSpace=wrap;html=1;strokeColor=#d6b656;" vertex="1" parent="UGw-6VoF0CwUTXnPX2Lv-251">
          <mxGeometry x="100" y="140" width="180" height="50" as="geometry" />
        </mxCell>
        <mxCell id="UGw-6VoF0CwUTXnPX2Lv-307" value="A strong &quot;owns-a&quot; relationship. If the whole is destroyed, so are the parts" style="text;whiteSpace=wrap;html=1;align=center;" vertex="1" parent="UGw-6VoF0CwUTXnPX2Lv-251">
          <mxGeometry x="59.38000000000011" y="200" width="261.25" height="30" as="geometry" />
        </mxCell>
        <mxCell id="UGw-6VoF0CwUTXnPX2Lv-256" value="" style="swimlane;startSize=0;" vertex="1" parent="1">
          <mxGeometry x="2220" y="1560" width="360" height="240" as="geometry" />
        </mxCell>
        <mxCell id="UGw-6VoF0CwUTXnPX2Lv-257" value="&lt;font style=&quot;font-size: 15px;&quot;&gt;&lt;b&gt;Inheritance&lt;/b&gt;&lt;/font&gt;" style="text;html=1;align=left;verticalAlign=middle;whiteSpace=wrap;rounded=0;" vertex="1" parent="UGw-6VoF0CwUTXnPX2Lv-256">
          <mxGeometry x="10" width="70" height="30" as="geometry" />
        </mxCell>
        <mxCell id="UGw-6VoF0CwUTXnPX2Lv-258" value="&lt;font style=&quot;font-size: 16px;&quot;&gt;Animal&lt;/font&gt;" style="swimlane;fontStyle=0;childLayout=stackLayout;horizontal=1;startSize=26;fillColor=#d5e8d4;horizontalStack=0;resizeParent=1;resizeParentMax=0;resizeLast=0;collapsible=1;marginBottom=0;whiteSpace=wrap;html=1;strokeColor=#82b366;" vertex="1" parent="UGw-6VoF0CwUTXnPX2Lv-256">
          <mxGeometry x="105" y="30" width="140" height="50" as="geometry" />
        </mxCell>
        <mxCell id="UGw-6VoF0CwUTXnPX2Lv-259" style="edgeStyle=orthogonalEdgeStyle;rounded=0;orthogonalLoop=1;jettySize=auto;html=1;endArrow=block;endFill=0;entryX=0.5;entryY=1;entryDx=0;entryDy=0;" edge="1" parent="UGw-6VoF0CwUTXnPX2Lv-256" source="UGw-6VoF0CwUTXnPX2Lv-260" target="UGw-6VoF0CwUTXnPX2Lv-258">
          <mxGeometry relative="1" as="geometry">
            <mxPoint x="195" y="80" as="targetPoint" />
            <Array as="points">
              <mxPoint x="90" y="110" />
              <mxPoint x="175" y="110" />
            </Array>
          </mxGeometry>
        </mxCell>
        <mxCell id="UGw-6VoF0CwUTXnPX2Lv-260" value="&lt;font style=&quot;font-size: 16px;&quot;&gt;Dog&lt;/font&gt;" style="swimlane;fontStyle=0;childLayout=stackLayout;horizontal=1;startSize=26;fillColor=#fff2cc;horizontalStack=0;resizeParent=1;resizeParentMax=0;resizeLast=0;collapsible=1;marginBottom=0;whiteSpace=wrap;html=1;strokeColor=#d6b656;" vertex="1" parent="UGw-6VoF0CwUTXnPX2Lv-256">
          <mxGeometry x="25" y="145" width="140" height="50" as="geometry" />
        </mxCell>
        <mxCell id="UGw-6VoF0CwUTXnPX2Lv-261" style="edgeStyle=orthogonalEdgeStyle;rounded=0;orthogonalLoop=1;jettySize=auto;html=1;endArrow=block;endFill=0;entryX=0.5;entryY=1;entryDx=0;entryDy=0;" edge="1" parent="UGw-6VoF0CwUTXnPX2Lv-256" source="UGw-6VoF0CwUTXnPX2Lv-262" target="UGw-6VoF0CwUTXnPX2Lv-258">
          <mxGeometry relative="1" as="geometry">
            <mxPoint x="195" y="80" as="targetPoint" />
            <Array as="points">
              <mxPoint x="265" y="110" />
              <mxPoint x="175" y="110" />
            </Array>
          </mxGeometry>
        </mxCell>
        <mxCell id="UGw-6VoF0CwUTXnPX2Lv-262" value="&lt;font style=&quot;font-size: 16px;&quot;&gt;Cat&lt;/font&gt;" style="swimlane;fontStyle=0;childLayout=stackLayout;horizontal=1;startSize=26;fillColor=#fff2cc;horizontalStack=0;resizeParent=1;resizeParentMax=0;resizeLast=0;collapsible=1;marginBottom=0;whiteSpace=wrap;html=1;strokeColor=#d6b656;" vertex="1" parent="UGw-6VoF0CwUTXnPX2Lv-256">
          <mxGeometry x="195" y="145" width="140" height="50" as="geometry" />
        </mxCell>
        <mxCell id="UGw-6VoF0CwUTXnPX2Lv-308" value="Represents a generalization — subclass &lt;span style=&quot;&quot; data-end=&quot;2145&quot; data-start=&quot;2133&quot;&gt;inherits&lt;/span&gt; from superclass" style="text;whiteSpace=wrap;html=1;align=center;" vertex="1" parent="UGw-6VoF0CwUTXnPX2Lv-256">
          <mxGeometry x="44.38000000000011" y="200" width="261.25" height="30" as="geometry" />
        </mxCell>
        <mxCell id="UGw-6VoF0CwUTXnPX2Lv-263" value="" style="swimlane;startSize=0;" vertex="1" parent="1">
          <mxGeometry x="2580" y="1560" width="360" height="240" as="geometry" />
        </mxCell>
        <mxCell id="UGw-6VoF0CwUTXnPX2Lv-264" value="&lt;font style=&quot;font-size: 15px;&quot;&gt;&lt;b&gt;Implementation&lt;/b&gt;&lt;/font&gt;" style="text;html=1;align=left;verticalAlign=middle;whiteSpace=wrap;rounded=0;" vertex="1" parent="UGw-6VoF0CwUTXnPX2Lv-263">
          <mxGeometry x="10" width="70" height="30" as="geometry" />
        </mxCell>
        <mxCell id="UGw-6VoF0CwUTXnPX2Lv-265" style="edgeStyle=orthogonalEdgeStyle;rounded=0;orthogonalLoop=1;jettySize=auto;html=1;endArrow=block;endFill=0;dashed=1;dashPattern=8 8;entryX=0.5;entryY=1;entryDx=0;entryDy=0;exitX=0.5;exitY=0;exitDx=0;exitDy=0;" edge="1" parent="UGw-6VoF0CwUTXnPX2Lv-263" source="UGw-6VoF0CwUTXnPX2Lv-267" target="UGw-6VoF0CwUTXnPX2Lv-266">
          <mxGeometry relative="1" as="geometry">
            <mxPoint x="180" y="150" as="targetPoint" />
          </mxGeometry>
        </mxCell>
        <mxCell id="UGw-6VoF0CwUTXnPX2Lv-266" value="&lt;font style=&quot;font-size: 16px;&quot;&gt;Drawable&lt;/font&gt;" style="swimlane;fontStyle=0;childLayout=stackLayout;horizontal=1;startSize=26;fillColor=#d5e8d4;horizontalStack=0;resizeParent=1;resizeParentMax=0;resizeLast=0;collapsible=1;marginBottom=0;whiteSpace=wrap;html=1;strokeColor=#82b366;" vertex="1" parent="UGw-6VoF0CwUTXnPX2Lv-263">
          <mxGeometry x="90" y="50" width="180" height="50" as="geometry" />
        </mxCell>
        <mxCell id="UGw-6VoF0CwUTXnPX2Lv-267" value="&lt;font style=&quot;font-size: 16px;&quot;&gt;Circle&lt;/font&gt;" style="swimlane;fontStyle=0;childLayout=stackLayout;horizontal=1;startSize=26;fillColor=#fff2cc;horizontalStack=0;resizeParent=1;resizeParentMax=0;resizeLast=0;collapsible=1;marginBottom=0;whiteSpace=wrap;html=1;strokeColor=#d6b656;" vertex="1" parent="UGw-6VoF0CwUTXnPX2Lv-263">
          <mxGeometry x="90" y="150" width="180" height="50" as="geometry" />
        </mxCell>
        <mxCell id="UGw-6VoF0CwUTXnPX2Lv-309" value="Class implements an interface — provides behavior for interface methods" style="text;whiteSpace=wrap;html=1;align=center;" vertex="1" parent="UGw-6VoF0CwUTXnPX2Lv-263">
          <mxGeometry x="49.38000000000011" y="200" width="261.25" height="30" as="geometry" />
        </mxCell>
        <mxCell id="UGw-6VoF0CwUTXnPX2Lv-268" value="" style="swimlane;startSize=0;" vertex="1" parent="1">
          <mxGeometry x="2940" y="1560" width="360" height="240" as="geometry" />
        </mxCell>
        <mxCell id="UGw-6VoF0CwUTXnPX2Lv-269" value="&lt;font style=&quot;font-size: 15px;&quot;&gt;&lt;b&gt;Dependency&lt;/b&gt;&lt;/font&gt;" style="text;html=1;align=left;verticalAlign=middle;whiteSpace=wrap;rounded=0;" vertex="1" parent="UGw-6VoF0CwUTXnPX2Lv-268">
          <mxGeometry x="10" width="70" height="30" as="geometry" />
        </mxCell>
        <mxCell id="UGw-6VoF0CwUTXnPX2Lv-270" style="edgeStyle=orthogonalEdgeStyle;rounded=0;orthogonalLoop=1;jettySize=auto;html=1;entryX=0.5;entryY=0;entryDx=0;entryDy=0;endArrow=open;endFill=0;dashed=1;dashPattern=8 8;" edge="1" parent="UGw-6VoF0CwUTXnPX2Lv-268" source="UGw-6VoF0CwUTXnPX2Lv-271" target="UGw-6VoF0CwUTXnPX2Lv-272">
          <mxGeometry relative="1" as="geometry" />
        </mxCell>
        <mxCell id="UGw-6VoF0CwUTXnPX2Lv-271" value="&lt;font style=&quot;font-size: 16px;&quot;&gt;OrderService&lt;/font&gt;" style="swimlane;fontStyle=0;childLayout=stackLayout;horizontal=1;startSize=26;fillColor=#d5e8d4;horizontalStack=0;resizeParent=1;resizeParentMax=0;resizeLast=0;collapsible=1;marginBottom=0;whiteSpace=wrap;html=1;strokeColor=#82b366;" vertex="1" parent="UGw-6VoF0CwUTXnPX2Lv-268">
          <mxGeometry x="90" y="40" width="180" height="50" as="geometry" />
        </mxCell>
        <mxCell id="UGw-6VoF0CwUTXnPX2Lv-272" value="&lt;font style=&quot;font-size: 16px;&quot;&gt;PaymentProcessor&lt;/font&gt;" style="swimlane;fontStyle=0;childLayout=stackLayout;horizontal=1;startSize=26;fillColor=#fff2cc;horizontalStack=0;resizeParent=1;resizeParentMax=0;resizeLast=0;collapsible=1;marginBottom=0;whiteSpace=wrap;html=1;strokeColor=#d6b656;" vertex="1" parent="UGw-6VoF0CwUTXnPX2Lv-268">
          <mxGeometry x="90" y="140" width="180" height="50" as="geometry" />
        </mxCell>
        <mxCell id="UGw-6VoF0CwUTXnPX2Lv-311" value="A temporary relationship where one class relies on another’s interface or behavior, without owning it" style="text;whiteSpace=wrap;html=1;align=center;" vertex="1" parent="UGw-6VoF0CwUTXnPX2Lv-268">
          <mxGeometry x="5" y="200" width="350" height="30" as="geometry" />
        </mxCell>
        <mxCell id="UGw-6VoF0CwUTXnPX2Lv-273" value="" style="endArrow=classic;html=1;rounded=0;dashed=1;dashPattern=8 8;exitX=0.5;exitY=1;exitDx=0;exitDy=0;" edge="1" parent="1" source="UGw-6VoF0CwUTXnPX2Lv-197">
          <mxGeometry width="50" height="50" relative="1" as="geometry">
            <mxPoint x="2870" y="680" as="sourcePoint" />
            <mxPoint x="2620" y="590" as="targetPoint" />
          </mxGeometry>
        </mxCell>
        <mxCell id="UGw-6VoF0CwUTXnPX2Lv-274" value="&lt;b&gt;&lt;font style=&quot;font-size: 22px;&quot;&gt;UML Class Diagrams&lt;/font&gt;&lt;/b&gt;" style="text;html=1;align=left;verticalAlign=middle;whiteSpace=wrap;rounded=0;" vertex="1" parent="1">
          <mxGeometry x="2220" y="430" width="380" height="50" as="geometry" />
        </mxCell>
        <mxCell id="UGw-6VoF0CwUTXnPX2Lv-275" value="" style="swimlane;startSize=0;" vertex="1" parent="1">
          <mxGeometry x="2580" y="780" width="350" height="240" as="geometry" />
        </mxCell>
        <mxCell id="UGw-6VoF0CwUTXnPX2Lv-276" value="&lt;font style=&quot;font-size: 15px;&quot;&gt;&lt;b&gt;Static&lt;/b&gt;&lt;/font&gt;" style="text;html=1;align=left;verticalAlign=middle;whiteSpace=wrap;rounded=0;" vertex="1" parent="UGw-6VoF0CwUTXnPX2Lv-275">
          <mxGeometry x="10" width="70" height="30" as="geometry" />
        </mxCell>
        <mxCell id="UGw-6VoF0CwUTXnPX2Lv-277" value="&lt;font style=&quot;font-size: 16px;&quot;&gt;Widget&lt;/font&gt;" style="swimlane;fontStyle=0;childLayout=stackLayout;horizontal=1;startSize=26;fillColor=light-dark(#FFAC9A,#004A09);horizontalStack=0;resizeParent=1;resizeParentMax=0;resizeLast=0;collapsible=1;marginBottom=0;whiteSpace=wrap;html=1;strokeColor=#6c8ebf;" vertex="1" parent="UGw-6VoF0CwUTXnPX2Lv-275">
          <mxGeometry x="10" y="30" width="170" height="156" as="geometry">
            <mxRectangle x="30" y="30" width="54" height="26" as="alternateBounds" />
          </mxGeometry>
        </mxCell>
        <mxCell id="UGw-6VoF0CwUTXnPX2Lv-278" value="&lt;font style=&quot;font-size: 14px;&quot;&gt;- &lt;u&gt;count: integer&lt;/u&gt;&lt;span style=&quot;white-space: pre;&quot;&gt;&#x9;&lt;/span&gt;&lt;/font&gt;" style="text;strokeColor=none;fillColor=none;align=left;verticalAlign=top;spacingLeft=4;spacingRight=4;overflow=hidden;rotatable=0;points=[[0,0.5],[1,0.5]];portConstraint=eastwest;whiteSpace=wrap;html=1;" vertex="1" parent="UGw-6VoF0CwUTXnPX2Lv-277">
          <mxGeometry y="26" width="170" height="26" as="geometry" />
        </mxCell>
        <mxCell id="UGw-6VoF0CwUTXnPX2Lv-279" value="&lt;font style=&quot;font-size: 14px;&quot;&gt;- color: integer&lt;/font&gt;" style="text;strokeColor=none;fillColor=none;align=left;verticalAlign=top;spacingLeft=4;spacingRight=4;overflow=hidden;rotatable=0;points=[[0,0.5],[1,0.5]];portConstraint=eastwest;whiteSpace=wrap;html=1;" vertex="1" parent="UGw-6VoF0CwUTXnPX2Lv-277">
          <mxGeometry y="52" width="170" height="26" as="geometry" />
        </mxCell>
        <mxCell id="UGw-6VoF0CwUTXnPX2Lv-280" value="&lt;font style=&quot;font-size: 14px;&quot;&gt;- alignment: float&lt;/font&gt;" style="text;strokeColor=none;fillColor=none;align=left;verticalAlign=top;spacingLeft=4;spacingRight=4;overflow=hidden;rotatable=0;points=[[0,0.5],[1,0.5]];portConstraint=eastwest;whiteSpace=wrap;html=1;" vertex="1" parent="UGw-6VoF0CwUTXnPX2Lv-277">
          <mxGeometry y="78" width="170" height="26" as="geometry" />
        </mxCell>
        <mxCell id="UGw-6VoF0CwUTXnPX2Lv-281" value="&lt;font style=&quot;font-size: 14px;&quot;&gt;+ &lt;u&gt;getCount(): integer&lt;/u&gt;&lt;/font&gt;" style="text;strokeColor=none;fillColor=none;align=left;verticalAlign=top;spacingLeft=4;spacingRight=4;overflow=hidden;rotatable=0;points=[[0,0.5],[1,0.5]];portConstraint=eastwest;whiteSpace=wrap;html=1;" vertex="1" parent="UGw-6VoF0CwUTXnPX2Lv-277">
          <mxGeometry y="104" width="170" height="26" as="geometry" />
        </mxCell>
        <mxCell id="UGw-6VoF0CwUTXnPX2Lv-282" value="&lt;font style=&quot;font-size: 14px;&quot;&gt;+ draw(): void&lt;/font&gt;" style="text;strokeColor=none;fillColor=none;align=left;verticalAlign=top;spacingLeft=4;spacingRight=4;overflow=hidden;rotatable=0;points=[[0,0.5],[1,0.5]];portConstraint=eastwest;whiteSpace=wrap;html=1;" vertex="1" parent="UGw-6VoF0CwUTXnPX2Lv-277">
          <mxGeometry y="130" width="170" height="26" as="geometry" />
        </mxCell>
        <mxCell id="UGw-6VoF0CwUTXnPX2Lv-283" value="" style="endArrow=none;html=1;rounded=0;exitX=0.002;exitY=-0.02;exitDx=0;exitDy=0;exitPerimeter=0;entryX=1;entryY=0.022;entryDx=0;entryDy=0;entryPerimeter=0;fillColor=#dae8fc;strokeColor=#6c8ebf;" edge="1" parent="UGw-6VoF0CwUTXnPX2Lv-277" source="UGw-6VoF0CwUTXnPX2Lv-281" target="UGw-6VoF0CwUTXnPX2Lv-281">
          <mxGeometry width="50" height="50" relative="1" as="geometry">
            <mxPoint x="60" y="250" as="sourcePoint" />
            <mxPoint x="110" y="200" as="targetPoint" />
          </mxGeometry>
        </mxCell>
        <mxCell id="UGw-6VoF0CwUTXnPX2Lv-284" value="&lt;font style=&quot;font-size: 16px;&quot;&gt;Static attribute&lt;/font&gt;" style="text;html=1;align=center;verticalAlign=middle;whiteSpace=wrap;rounded=0;" vertex="1" parent="UGw-6VoF0CwUTXnPX2Lv-275">
          <mxGeometry x="220" y="54" width="110" height="30" as="geometry" />
        </mxCell>
        <mxCell id="UGw-6VoF0CwUTXnPX2Lv-285" value="&lt;font style=&quot;font-size: 16px;&quot;&gt;Static method&lt;/font&gt;" style="text;html=1;align=left;verticalAlign=middle;whiteSpace=wrap;rounded=0;" vertex="1" parent="UGw-6VoF0CwUTXnPX2Lv-275">
          <mxGeometry x="220" y="132" width="100" height="30" as="geometry" />
        </mxCell>
        <mxCell id="UGw-6VoF0CwUTXnPX2Lv-286" value="" style="shape=flexArrow;endArrow=classic;html=1;rounded=0;endWidth=10.277777777777777;endSize=4.347222222222222;width=9.444444444444445;" edge="1" parent="UGw-6VoF0CwUTXnPX2Lv-275">
          <mxGeometry width="50" height="50" relative="1" as="geometry">
            <mxPoint x="220" y="68.71000000000004" as="sourcePoint" />
            <mxPoint x="180" y="68.71000000000004" as="targetPoint" />
          </mxGeometry>
        </mxCell>
        <mxCell id="UGw-6VoF0CwUTXnPX2Lv-287" value="" style="shape=flexArrow;endArrow=classic;html=1;rounded=0;endWidth=10.277777777777777;endSize=4.347222222222222;width=9.444444444444445;" edge="1" parent="UGw-6VoF0CwUTXnPX2Lv-275">
          <mxGeometry width="50" height="50" relative="1" as="geometry">
            <mxPoint x="220" y="146.71000000000004" as="sourcePoint" />
            <mxPoint x="180" y="146.71000000000004" as="targetPoint" />
          </mxGeometry>
        </mxCell>
        <mxCell id="UGw-6VoF0CwUTXnPX2Lv-302" value="&lt;span style=&quot;font-size: 13px;&quot;&gt;&lt;i style=&quot;font-weight: bold;&quot;&gt;Static&amp;nbsp;&lt;/i&gt;represents &lt;b&gt;class-level members&lt;/b&gt;&amp;nbsp;- shared across all instances&lt;/span&gt;" style="text;html=1;align=left;verticalAlign=middle;whiteSpace=wrap;rounded=0;" vertex="1" parent="UGw-6VoF0CwUTXnPX2Lv-275">
          <mxGeometry x="10" y="200" width="340" height="30" as="geometry" />
        </mxCell>
        <mxCell id="UGw-6VoF0CwUTXnPX2Lv-288" value="" style="swimlane;startSize=0;" vertex="1" parent="1">
          <mxGeometry x="2930" y="1020" width="310" height="240" as="geometry" />
        </mxCell>
        <mxCell id="UGw-6VoF0CwUTXnPX2Lv-289" value="&lt;font style=&quot;font-size: 15px;&quot;&gt;&lt;b&gt;Templates&lt;/b&gt;&lt;/font&gt;" style="text;html=1;align=left;verticalAlign=middle;whiteSpace=wrap;rounded=0;" vertex="1" parent="UGw-6VoF0CwUTXnPX2Lv-288">
          <mxGeometry x="10" width="70" height="30" as="geometry" />
        </mxCell>
        <mxCell id="UGw-6VoF0CwUTXnPX2Lv-290" value="" style="endArrow=classic;html=1;rounded=0;entryX=1;entryY=1;entryDx=0;entryDy=0;exitX=0.25;exitY=0;exitDx=0;exitDy=0;" edge="1" parent="UGw-6VoF0CwUTXnPX2Lv-288" source="UGw-6VoF0CwUTXnPX2Lv-291" target="UGw-6VoF0CwUTXnPX2Lv-296">
          <mxGeometry width="50" height="50" relative="1" as="geometry">
            <mxPoint x="270" y="110" as="sourcePoint" />
            <mxPoint x="240" y="75.00000000000023" as="targetPoint" />
          </mxGeometry>
        </mxCell>
        <mxCell id="UGw-6VoF0CwUTXnPX2Lv-291" value="Template&lt;div&gt;parameter&lt;/div&gt;" style="text;html=1;align=center;verticalAlign=middle;whiteSpace=wrap;rounded=0;" vertex="1" parent="UGw-6VoF0CwUTXnPX2Lv-288">
          <mxGeometry x="240" y="115" width="60" height="30" as="geometry" />
        </mxCell>
        <mxCell id="UGw-6VoF0CwUTXnPX2Lv-292" value="&lt;font style=&quot;font-size: 17px;&quot;&gt;Set&lt;/font&gt;" style="rounded=0;whiteSpace=wrap;html=1;fillColor=#e1d5e7;strokeColor=#9673a6;" vertex="1" parent="UGw-6VoF0CwUTXnPX2Lv-288">
          <mxGeometry x="10" y="55" width="207.5" height="40" as="geometry" />
        </mxCell>
        <mxCell id="UGw-6VoF0CwUTXnPX2Lv-293" value="" style="rounded=0;whiteSpace=wrap;html=1;fillColor=none;strokeColor=#9673a6;" vertex="1" parent="UGw-6VoF0CwUTXnPX2Lv-288">
          <mxGeometry x="10" y="95" width="207.5" height="50" as="geometry" />
        </mxCell>
        <mxCell id="UGw-6VoF0CwUTXnPX2Lv-294" value="&lt;font style=&quot;font-size: 14px;&quot;&gt;+ insert(T): void&lt;/font&gt;" style="text;strokeColor=none;fillColor=none;align=left;verticalAlign=top;spacingLeft=4;spacingRight=4;overflow=hidden;rotatable=0;points=[[0,0.5],[1,0.5]];portConstraint=eastwest;whiteSpace=wrap;html=1;" vertex="1" parent="UGw-6VoF0CwUTXnPX2Lv-288">
          <mxGeometry x="10" y="95" width="207.5" height="26" as="geometry" />
        </mxCell>
        <mxCell id="UGw-6VoF0CwUTXnPX2Lv-295" value="&lt;font style=&quot;font-size: 14px;&quot;&gt;+ remove(T): T&lt;/font&gt;" style="text;strokeColor=none;fillColor=none;align=left;verticalAlign=top;spacingLeft=4;spacingRight=4;overflow=hidden;rotatable=0;points=[[0,0.5],[1,0.5]];portConstraint=eastwest;whiteSpace=wrap;html=1;" vertex="1" parent="UGw-6VoF0CwUTXnPX2Lv-288">
          <mxGeometry x="10" y="121" width="207.5" height="26" as="geometry" />
        </mxCell>
        <mxCell id="UGw-6VoF0CwUTXnPX2Lv-296" value="&lt;font style=&quot;font-size: 17px;&quot;&gt;T&lt;/font&gt;" style="rounded=0;whiteSpace=wrap;html=1;dashed=1;dashPattern=12 12;" vertex="1" parent="UGw-6VoF0CwUTXnPX2Lv-288">
          <mxGeometry x="150" y="40" width="80" height="35" as="geometry" />
        </mxCell>
        <mxCell id="UGw-6VoF0CwUTXnPX2Lv-303" value="&lt;b&gt;&lt;i&gt;Templates&lt;/i&gt;&lt;/b&gt; are used to define &lt;strong data-start=&quot;1434&quot; data-end=&quot;1464&quot;&gt;generic classes or methods&lt;/strong&gt; that can operate on any data type" style="text;whiteSpace=wrap;html=1;" vertex="1" parent="UGw-6VoF0CwUTXnPX2Lv-288">
          <mxGeometry x="10" y="190" width="270" height="40" as="geometry" />
        </mxCell>
        <mxCell id="UGw-6VoF0CwUTXnPX2Lv-297" value="&lt;b&gt;&lt;font style=&quot;font-size: 22px;&quot;&gt;Relationships&lt;/font&gt;&lt;/b&gt;" style="text;html=1;align=left;verticalAlign=middle;whiteSpace=wrap;rounded=0;" vertex="1" parent="1">
          <mxGeometry x="2220" y="1270" width="380" height="50" as="geometry" />
        </mxCell>
      </root>
    </mxGraphModel>
  </diagram>
</mxfile>
